  0
SECTION
  2
BLOCKS
  0
ENDSEC
  0
SECTION
  2
ENTITIES
  0
LINE
  8
0
 10
-20.325
 11
-20.325
 20
-27.95
 21
34.85
  0
LINE
  8
0
 10
-20.325
 11
-12.825
 20
34.85
 21
34.85
  0
LINE
  8
0
 10
-12.825
 11
-12.825
 20
34.85
 21
38.05
  0
LINE
  8
0
 10
-12.825
 11
-20.325
 20
38.05
 21
38.05
  0
LINE
  8
0
 10
-20.325
 11
-20.325
 20
38.05
 21
68.1
  0
LINE
  8
0
 10
-20.325
 11
-12.825
 20
68.1
 21
68.1
  0
LINE
  8
0
 10
-12.825
 11
-12.825
 20
68.1
 21
71.3
  0
LINE
  8
0
 10
-12.825
 11
-20.325
 20
71.3
 21
71.3
  0
LINE
  8
0
 10
-20.325
 11
-20.325
 20
71.3
 21
132.85
  0
LINE
  8
0
 10
-20.325
 11
-17.125
 20
132.85
 21
132.85
  0
LINE
  8
0
 10
-17.125
 11
-17.125
 20
132.85
 21
140.35
  0
LINE
  8
0
 10
-17.125
 11
26.875
 20
140.35
 21
140.35
  0
LINE
  8
0
 10
26.875
 11
26.875
 20
140.35
 21
132.85
  0
LINE
  8
0
 10
26.875
 11
30.075
 20
132.85
 21
132.85
  0
LINE
  8
0
 10
30.075
 11
30.075
 20
132.85
 21
140.35
  0
LINE
  8
0
 10
30.075
 11
59.575
 20
140.35
 21
140.35
  0
LINE
  8
0
 10
59.575
 11
59.575
 20
140.35
 21
-35.45
  0
LINE
  8
0
 10
59.575
 11
30.075
 20
-35.45
 21
-35.45
  0
LINE
  8
0
 10
30.075
 11
30.075
 20
-35.45
 21
-27.95
  0
LINE
  8
0
 10
30.075
 11
26.875
 20
-27.95
 21
-27.95
  0
LINE
  8
0
 10
26.875
 11
26.875
 20
-27.95
 21
-35.45
  0
LINE
  8
0
 10
26.875
 11
-17.125
 20
-35.45
 21
-35.45
  0
LINE
  8
0
 10
-17.125
 11
-17.125
 20
-35.45
 21
-27.95
  0
LINE
  8
0
 10
-17.125
 11
-20.325
 20
-27.95
 21
-27.95
  0
LINE
  8
0
 10
-15.175
 11
-15.06
 20
-27.95
 21
-27.224
  0
LINE
  8
0
 10
-15.06
 11
-14.726
 20
-27.224
 21
-26.569
  0
LINE
  8
0
 10
-14.726
 11
-14.206
 20
-26.569
 21
-26.049
  0
LINE
  8
0
 10
-14.206
 11
-13.551
 20
-26.049
 21
-25.715
  0
LINE
  8
0
 10
-13.551
 11
-12.825
 20
-25.715
 21
-25.6
  0
LINE
  8
0
 10
-12.825
 11
-12.099
 20
-25.6
 21
-25.715
  0
LINE
  8
0
 10
-12.099
 11
-11.444
 20
-25.715
 21
-26.049
  0
LINE
  8
0
 10
-11.444
 11
-10.924
 20
-26.049
 21
-26.569
  0
LINE
  8
0
 10
-10.924
 11
-10.59
 20
-26.569
 21
-27.224
  0
LINE
  8
0
 10
-10.59
 11
-10.475
 20
-27.224
 21
-27.95
  0
LINE
  8
0
 10
-10.475
 11
-10.59
 20
-27.95
 21
-28.676
  0
LINE
  8
0
 10
-10.59
 11
-10.924
 20
-28.676
 21
-29.331
  0
LINE
  8
0
 10
-10.924
 11
-11.444
 20
-29.331
 21
-29.851
  0
LINE
  8
0
 10
-11.444
 11
-12.099
 20
-29.851
 21
-30.185
  0
LINE
  8
0
 10
-12.099
 11
-12.825
 20
-30.185
 21
-30.3
  0
LINE
  8
0
 10
-12.825
 11
-13.551
 20
-30.3
 21
-30.185
  0
LINE
  8
0
 10
-13.551
 11
-14.206
 20
-30.185
 21
-29.851
  0
LINE
  8
0
 10
-14.206
 11
-14.726
 20
-29.851
 21
-29.331
  0
LINE
  8
0
 10
-14.726
 11
-15.06
 20
-29.331
 21
-28.676
  0
LINE
  8
0
 10
-15.06
 11
-15.175
 20
-28.676
 21
-27.95
  0
LINE
  8
0
 10
-15.175
 11
-15.06
 20
132.85
 21
133.576
  0
LINE
  8
0
 10
-15.06
 11
-14.726
 20
133.576
 21
134.231
  0
LINE
  8
0
 10
-14.726
 11
-14.206
 20
134.231
 21
134.751
  0
LINE
  8
0
 10
-14.206
 11
-13.551
 20
134.751
 21
135.085
  0
LINE
  8
0
 10
-13.551
 11
-12.825
 20
135.085
 21
135.2
  0
LINE
  8
0
 10
-12.825
 11
-12.099
 20
135.2
 21
135.085
  0
LINE
  8
0
 10
-12.099
 11
-11.444
 20
135.085
 21
134.751
  0
LINE
  8
0
 10
-11.444
 11
-10.924
 20
134.751
 21
134.231
  0
LINE
  8
0
 10
-10.924
 11
-10.59
 20
134.231
 21
133.576
  0
LINE
  8
0
 10
-10.59
 11
-10.475
 20
133.576
 21
132.85
  0
LINE
  8
0
 10
-10.475
 11
-10.59
 20
132.85
 21
132.124
  0
LINE
  8
0
 10
-10.59
 11
-10.924
 20
132.124
 21
131.469
  0
LINE
  8
0
 10
-10.924
 11
-11.444
 20
131.469
 21
130.949
  0
LINE
  8
0
 10
-11.444
 11
-12.099
 20
130.949
 21
130.615
  0
LINE
  8
0
 10
-12.099
 11
-12.825
 20
130.615
 21
130.5
  0
LINE
  8
0
 10
-12.825
 11
-13.551
 20
130.5
 21
130.615
  0
LINE
  8
0
 10
-13.551
 11
-14.206
 20
130.615
 21
130.949
  0
LINE
  8
0
 10
-14.206
 11
-14.726
 20
130.949
 21
131.469
  0
LINE
  8
0
 10
-14.726
 11
-15.06
 20
131.469
 21
132.124
  0
LINE
  8
0
 10
-15.06
 11
-15.175
 20
132.124
 21
132.85
  0
LINE
  8
0
 10
-5.325
 11
-5.325
 20
-10.225
 21
10.225
  0
LINE
  8
0
 10
-5.325
 11
5.325
 20
10.225
 21
10.225
  0
LINE
  8
0
 10
5.325
 11
5.325
 20
10.225
 21
-10.225
  0
LINE
  8
0
 10
5.325
 11
2.5
 20
-10.225
 21
-10.225
  0
LINE
  8
0
 10
2.5
 11
2.5
 20
-10.225
 21
-20
  0
LINE
  8
0
 10
2.5
 11
-2.5
 20
-20
 21
-20
  0
LINE
  8
0
 10
-2.5
 11
-2.5
 20
-20
 21
-10.225
  0
LINE
  8
0
 10
-2.5
 11
-5.325
 20
-10.225
 21
-10.225
  0
LINE
  8
0
 10
-2.075
 11
-2.075
 20
26.225
 21
46.675
  0
LINE
  8
0
 10
-2.075
 11
8.575
 20
46.675
 21
46.675
  0
LINE
  8
0
 10
8.575
 11
8.575
 20
46.675
 21
26.225
  0
LINE
  8
0
 10
8.575
 11
5.75
 20
26.225
 21
26.225
  0
LINE
  8
0
 10
5.75
 11
5.75
 20
26.225
 21
16.45
  0
LINE
  8
0
 10
5.75
 11
0.75
 20
16.45
 21
16.45
  0
LINE
  8
0
 10
0.75
 11
0.75
 20
16.45
 21
26.225
  0
LINE
  8
0
 10
0.75
 11
-2.075
 20
26.225
 21
26.225
  0
LINE
  8
0
 10
1.175
 11
1.175
 20
62.675
 21
83.125
  0
LINE
  8
0
 10
1.175
 11
11.825
 20
83.125
 21
83.125
  0
LINE
  8
0
 10
11.825
 11
11.825
 20
83.125
 21
62.675
  0
LINE
  8
0
 10
11.825
 11
9
 20
62.675
 21
62.675
  0
LINE
  8
0
 10
9
 11
9
 20
62.675
 21
52.9
  0
LINE
  8
0
 10
9
 11
4
 20
52.9
 21
52.9
  0
LINE
  8
0
 10
4
 11
4
 20
52.9
 21
62.675
  0
LINE
  8
0
 10
4
 11
1.175
 20
62.675
 21
62.675
  0
LINE
  8
0
 10
4.425
 11
4.425
 20
99.125
 21
119.575
  0
LINE
  8
0
 10
4.425
 11
15.075
 20
119.575
 21
119.575
  0
LINE
  8
0
 10
15.075
 11
15.075
 20
119.575
 21
99.125
  0
LINE
  8
0
 10
15.075
 11
12.25
 20
99.125
 21
99.125
  0
LINE
  8
0
 10
12.25
 11
12.25
 20
99.125
 21
89.35
  0
LINE
  8
0
 10
12.25
 11
7.25
 20
89.35
 21
89.35
  0
LINE
  8
0
 10
7.25
 11
7.25
 20
89.35
 21
99.125
  0
LINE
  8
0
 10
7.25
 11
4.425
 20
99.125
 21
99.125
  0
LINE
  8
0
 10
22.575
 11
22.575
 20
34.85
 21
38.05
  0
LINE
  8
0
 10
22.575
 11
30.125
 20
38.05
 21
38.05
  0
LINE
  8
0
 10
30.125
 11
30.125
 20
38.05
 21
34.85
  0
LINE
  8
0
 10
30.125
 11
22.575
 20
34.85
 21
34.85
  0
LINE
  8
0
 10
22.575
 11
22.575
 20
68.1
 21
71.3
  0
LINE
  8
0
 10
22.575
 11
30.125
 20
71.3
 21
71.3
  0
LINE
  8
0
 10
30.125
 11
30.125
 20
71.3
 21
68.1
  0
LINE
  8
0
 10
30.125
 11
22.575
 20
68.1
 21
68.1
  0
LINE
  8
0
 10
48.8
 11
48.8
 20
32.45
 21
43.95
  0
LINE
  8
0
 10
48.8
 11
52
 20
43.95
 21
43.95
  0
LINE
  8
0
 10
52
 11
52
 20
43.95
 21
32.45
  0
LINE
  8
0
 10
52
 11
48.8
 20
32.45
 21
32.45
  0
LINE
  8
0
 10
48.8
 11
48.8
 20
60.95
 21
72.45
  0
LINE
  8
0
 10
48.8
 11
52
 20
72.45
 21
72.45
  0
LINE
  8
0
 10
52
 11
52
 20
72.45
 21
60.95
  0
LINE
  8
0
 10
52
 11
48.8
 20
60.95
 21
60.95
  0
LINE
  8
0
 10
49.725
 11
49.84
 20
17.45
 21
18.176
  0
LINE
  8
0
 10
49.84
 11
50.174
 20
18.176
 21
18.831
  0
LINE
  8
0
 10
50.174
 11
50.694
 20
18.831
 21
19.351
  0
LINE
  8
0
 10
50.694
 11
51.349
 20
19.351
 21
19.685
  0
LINE
  8
0
 10
51.349
 11
52.075
 20
19.685
 21
19.8
  0
LINE
  8
0
 10
52.075
 11
52.801
 20
19.8
 21
19.685
  0
LINE
  8
0
 10
52.801
 11
53.456
 20
19.685
 21
19.351
  0
LINE
  8
0
 10
53.456
 11
53.976
 20
19.351
 21
18.831
  0
LINE
  8
0
 10
53.976
 11
54.31
 20
18.831
 21
18.176
  0
LINE
  8
0
 10
54.31
 11
54.425
 20
18.176
 21
17.45
  0
LINE
  8
0
 10
54.425
 11
54.31
 20
17.45
 21
16.724
  0
LINE
  8
0
 10
54.31
 11
53.976
 20
16.724
 21
16.069
  0
LINE
  8
0
 10
53.976
 11
53.456
 20
16.069
 21
15.549
  0
LINE
  8
0
 10
53.456
 11
52.801
 20
15.549
 21
15.215
  0
LINE
  8
0
 10
52.801
 11
52.075
 20
15.215
 21
15.1
  0
LINE
  8
0
 10
52.075
 11
51.349
 20
15.1
 21
15.215
  0
LINE
  8
0
 10
51.349
 11
50.694
 20
15.215
 21
15.549
  0
LINE
  8
0
 10
50.694
 11
50.174
 20
15.549
 21
16.069
  0
LINE
  8
0
 10
50.174
 11
49.84
 20
16.069
 21
16.724
  0
LINE
  8
0
 10
49.84
 11
49.725
 20
16.724
 21
17.45
  0
LINE
  8
0
 10
49.725
 11
49.84
 20
87.45
 21
88.176
  0
LINE
  8
0
 10
49.84
 11
50.174
 20
88.176
 21
88.831
  0
LINE
  8
0
 10
50.174
 11
50.694
 20
88.831
 21
89.351
  0
LINE
  8
0
 10
50.694
 11
51.349
 20
89.351
 21
89.685
  0
LINE
  8
0
 10
51.349
 11
52.075
 20
89.685
 21
89.8
  0
LINE
  8
0
 10
52.075
 11
52.801
 20
89.8
 21
89.685
  0
LINE
  8
0
 10
52.801
 11
53.456
 20
89.685
 21
89.351
  0
LINE
  8
0
 10
53.456
 11
53.976
 20
89.351
 21
88.831
  0
LINE
  8
0
 10
53.976
 11
54.31
 20
88.831
 21
88.176
  0
LINE
  8
0
 10
54.31
 11
54.425
 20
88.176
 21
87.45
  0
LINE
  8
0
 10
54.425
 11
54.31
 20
87.45
 21
86.724
  0
LINE
  8
0
 10
54.31
 11
53.976
 20
86.724
 21
86.069
  0
LINE
  8
0
 10
53.976
 11
53.456
 20
86.069
 21
85.549
  0
LINE
  8
0
 10
53.456
 11
52.801
 20
85.549
 21
85.215
  0
LINE
  8
0
 10
52.801
 11
52.075
 20
85.215
 21
85.1
  0
LINE
  8
0
 10
52.075
 11
51.349
 20
85.1
 21
85.215
  0
LINE
  8
0
 10
51.349
 11
50.694
 20
85.215
 21
85.549
  0
LINE
  8
0
 10
50.694
 11
50.174
 20
85.549
 21
86.069
  0
LINE
  8
0
 10
50.174
 11
49.84
 20
86.069
 21
86.724
  0
LINE
  8
0
 10
49.84
 11
49.725
 20
86.724
 21
87.45
  0
ENDSEC
  0
SECTION
  2
OBJECTS
  0
DICTIONARY
  0
ENDSEC
  0
EOF
