  0
SECTION
  2
BLOCKS
  0
ENDSEC
  0
SECTION
  2
ENTITIES
  0
LINE
  8
0
 10
-5.05
 11
-5.05
 20
-35.45
 21
-27.95
  0
LINE
  8
0
 10
-5.05
 11
-1.9
 20
-27.95
 21
-27.95
  0
LINE
  8
0
 10
-1.9
 11
-1.9
 20
-27.95
 21
34.85
  0
LINE
  8
0
 10
-1.9
 11
13
 20
34.85
 21
34.85
  0
LINE
  8
0
 10
13
 11
13
 20
34.85
 21
38.05
  0
LINE
  8
0
 10
13
 11
-1.9
 20
38.05
 21
38.05
  0
LINE
  8
0
 10
-1.9
 11
-1.9
 20
38.05
 21
68.1
  0
LINE
  8
0
 10
-1.9
 11
13
 20
68.1
 21
68.1
  0
LINE
  8
0
 10
13
 11
13
 20
68.1
 21
71.3
  0
LINE
  8
0
 10
13
 11
-1.9
 20
71.3
 21
71.3
  0
LINE
  8
0
 10
-1.9
 11
-1.9
 20
71.3
 21
132.85
  0
LINE
  8
0
 10
-1.9
 11
-5.05
 20
132.85
 21
132.85
  0
LINE
  8
0
 10
-5.05
 11
-5.05
 20
132.85
 21
140.35
  0
LINE
  8
0
 10
-5.05
 11
46.05
 20
140.35
 21
140.35
  0
LINE
  8
0
 10
46.05
 11
46.05
 20
140.35
 21
132.85
  0
LINE
  8
0
 10
46.05
 11
42.9
 20
132.85
 21
132.85
  0
LINE
  8
0
 10
42.9
 11
42.9
 20
132.85
 21
71.3
  0
LINE
  8
0
 10
42.9
 11
28
 20
71.3
 21
71.3
  0
LINE
  8
0
 10
28
 11
28
 20
71.3
 21
68.1
  0
LINE
  8
0
 10
28
 11
42.9
 20
68.1
 21
68.1
  0
LINE
  8
0
 10
42.9
 11
42.9
 20
68.1
 21
38.05
  0
LINE
  8
0
 10
42.9
 11
28
 20
38.05
 21
38.05
  0
LINE
  8
0
 10
28
 11
28
 20
38.05
 21
34.85
  0
LINE
  8
0
 10
28
 11
42.9
 20
34.85
 21
34.85
  0
LINE
  8
0
 10
42.9
 11
42.9
 20
34.85
 21
-27.95
  0
LINE
  8
0
 10
42.9
 11
46.05
 20
-27.95
 21
-27.95
  0
LINE
  8
0
 10
46.05
 11
46.05
 20
-27.95
 21
-35.45
  0
LINE
  8
0
 10
46.05
 11
-5.05
 20
-35.45
 21
-35.45
  0
LINE
  8
0
 10
12.5
 11
12.573
 20
15
 21
15.464
  0
LINE
  8
0
 10
12.573
 11
12.786
 20
15.464
 21
15.882
  0
LINE
  8
0
 10
12.786
 11
13.118
 20
15.882
 21
16.214
  0
LINE
  8
0
 10
13.118
 11
13.536
 20
16.214
 21
16.427
  0
LINE
  8
0
 10
13.536
 11
14
 20
16.427
 21
16.5
  0
LINE
  8
0
 10
14
 11
14.464
 20
16.5
 21
16.427
  0
LINE
  8
0
 10
14.464
 11
14.882
 20
16.427
 21
16.214
  0
LINE
  8
0
 10
14.882
 11
15.214
 20
16.214
 21
15.882
  0
LINE
  8
0
 10
15.214
 11
15.427
 20
15.882
 21
15.464
  0
LINE
  8
0
 10
15.427
 11
15.5
 20
15.464
 21
15
  0
LINE
  8
0
 10
15.5
 11
15.427
 20
15
 21
14.536
  0
LINE
  8
0
 10
15.427
 11
15.214
 20
14.536
 21
14.118
  0
LINE
  8
0
 10
15.214
 11
14.882
 20
14.118
 21
13.786
  0
LINE
  8
0
 10
14.882
 11
14.464
 20
13.786
 21
13.573
  0
LINE
  8
0
 10
14.464
 11
14
 20
13.573
 21
13.5
  0
LINE
  8
0
 10
14
 11
13.536
 20
13.5
 21
13.573
  0
LINE
  8
0
 10
13.536
 11
13.118
 20
13.573
 21
13.786
  0
LINE
  8
0
 10
13.118
 11
12.786
 20
13.786
 21
14.118
  0
LINE
  8
0
 10
12.786
 11
12.573
 20
14.118
 21
14.536
  0
LINE
  8
0
 10
12.573
 11
12.5
 20
14.536
 21
15
  0
LINE
  8
0
 10
12.5
 11
12.573
 20
87.9
 21
88.364
  0
LINE
  8
0
 10
12.573
 11
12.786
 20
88.364
 21
88.782
  0
LINE
  8
0
 10
12.786
 11
13.118
 20
88.782
 21
89.114
  0
LINE
  8
0
 10
13.118
 11
13.536
 20
89.114
 21
89.327
  0
LINE
  8
0
 10
13.536
 11
14
 20
89.327
 21
89.4
  0
LINE
  8
0
 10
14
 11
14.464
 20
89.4
 21
89.327
  0
LINE
  8
0
 10
14.464
 11
14.882
 20
89.327
 21
89.114
  0
LINE
  8
0
 10
14.882
 11
15.214
 20
89.114
 21
88.782
  0
LINE
  8
0
 10
15.214
 11
15.427
 20
88.782
 21
88.364
  0
LINE
  8
0
 10
15.427
 11
15.5
 20
88.364
 21
87.9
  0
LINE
  8
0
 10
15.5
 11
15.427
 20
87.9
 21
87.436
  0
LINE
  8
0
 10
15.427
 11
15.214
 20
87.436
 21
87.018
  0
LINE
  8
0
 10
15.214
 11
14.882
 20
87.018
 21
86.686
  0
LINE
  8
0
 10
14.882
 11
14.464
 20
86.686
 21
86.473
  0
LINE
  8
0
 10
14.464
 11
14
 20
86.473
 21
86.4
  0
LINE
  8
0
 10
14
 11
13.536
 20
86.4
 21
86.473
  0
LINE
  8
0
 10
13.536
 11
13.118
 20
86.473
 21
86.686
  0
LINE
  8
0
 10
13.118
 11
12.786
 20
86.686
 21
87.018
  0
LINE
  8
0
 10
12.786
 11
12.573
 20
87.018
 21
87.436
  0
LINE
  8
0
 10
12.573
 11
12.5
 20
87.436
 21
87.9
  0
LINE
  8
0
 10
20.9
 11
20.973
 20
53.075
 21
53.539
  0
LINE
  8
0
 10
20.973
 11
21.186
 20
53.539
 21
53.957
  0
LINE
  8
0
 10
21.186
 11
21.518
 20
53.957
 21
54.289
  0
LINE
  8
0
 10
21.518
 11
21.936
 20
54.289
 21
54.502
  0
LINE
  8
0
 10
21.936
 11
22.4
 20
54.502
 21
54.575
  0
LINE
  8
0
 10
22.4
 11
22.864
 20
54.575
 21
54.502
  0
LINE
  8
0
 10
22.864
 11
23.282
 20
54.502
 21
54.289
  0
LINE
  8
0
 10
23.282
 11
23.614
 20
54.289
 21
53.957
  0
LINE
  8
0
 10
23.614
 11
23.827
 20
53.957
 21
53.539
  0
LINE
  8
0
 10
23.827
 11
23.9
 20
53.539
 21
53.075
  0
LINE
  8
0
 10
23.9
 11
23.827
 20
53.075
 21
52.611
  0
LINE
  8
0
 10
23.827
 11
23.614
 20
52.611
 21
52.193
  0
LINE
  8
0
 10
23.614
 11
23.282
 20
52.193
 21
51.861
  0
LINE
  8
0
 10
23.282
 11
22.864
 20
51.861
 21
51.648
  0
LINE
  8
0
 10
22.864
 11
22.4
 20
51.648
 21
51.575
  0
LINE
  8
0
 10
22.4
 11
21.936
 20
51.575
 21
51.648
  0
LINE
  8
0
 10
21.936
 11
21.518
 20
51.648
 21
51.861
  0
LINE
  8
0
 10
21.518
 11
21.186
 20
51.861
 21
52.193
  0
LINE
  8
0
 10
21.186
 11
20.973
 20
52.193
 21
52.611
  0
LINE
  8
0
 10
20.973
 11
20.9
 20
52.611
 21
53.075
  0
ENDSEC
  0
SECTION
  2
OBJECTS
  0
DICTIONARY
  0
ENDSEC
  0
EOF
