  0
SECTION
  2
BLOCKS
  0
ENDSEC
  0
SECTION
  2
ENTITIES
  0
LINE
  8
0
 10
-5
 11
-5
 20
32.45
 21
43.95
  0
LINE
  8
0
 10
-5
 11
-1.8
 20
43.95
 21
43.95
  0
LINE
  8
0
 10
-1.8
 11
-1.8
 20
43.95
 21
60.95
  0
LINE
  8
0
 10
-1.8
 11
-5
 20
60.95
 21
60.95
  0
LINE
  8
0
 10
-5
 11
-5
 20
60.95
 21
72.45
  0
LINE
  8
0
 10
-5
 11
46
 20
72.45
 21
72.45
  0
LINE
  8
0
 10
46
 11
46
 20
72.45
 21
60.95
  0
LINE
  8
0
 10
46
 11
42.8
 20
60.95
 21
60.95
  0
LINE
  8
0
 10
42.8
 11
42.8
 20
60.95
 21
43.95
  0
LINE
  8
0
 10
42.8
 11
46
 20
43.95
 21
43.95
  0
LINE
  8
0
 10
46
 11
46
 20
43.95
 21
32.45
  0
LINE
  8
0
 10
46
 11
-5
 20
32.45
 21
32.45
  0
LINE
  8
0
 10
4.713
 11
5.015
 20
37.971
 21
38.9
  0
LINE
  8
0
 10
5.015
 11
5.669
 20
38.9
 21
39.626
  0
LINE
  8
0
 10
5.669
 11
6.561
 20
39.626
 21
40.024
  0
LINE
  8
0
 10
6.561
 11
7.539
 20
40.024
 21
40.024
  0
LINE
  8
0
 10
7.539
 11
8.431
 20
40.024
 21
39.626
  0
LINE
  8
0
 10
8.431
 11
9.085
 20
39.626
 21
38.9
  0
LINE
  8
0
 10
9.085
 11
9.387
 20
38.9
 21
37.971
  0
LINE
  8
0
 10
9.387
 11
9.285
 20
37.971
 21
36.999
  0
LINE
  8
0
 10
9.285
 11
8.796
 20
36.999
 21
36.153
  0
LINE
  8
0
 10
8.796
 11
8.006
 20
36.153
 21
35.578
  0
LINE
  8
0
 10
8.006
 11
7.05
 20
35.578
 21
35.375
  0
LINE
  8
0
 10
7.05
 11
6.094
 20
35.375
 21
35.578
  0
LINE
  8
0
 10
6.094
 11
5.304
 20
35.578
 21
36.153
  0
LINE
  8
0
 10
5.304
 11
4.815
 20
36.153
 21
36.999
  0
LINE
  8
0
 10
4.815
 11
4.713
 20
36.999
 21
37.971
  0
LINE
  8
0
 10
4.713
 11
5.015
 20
68.671
 21
69.6
  0
LINE
  8
0
 10
5.015
 11
5.669
 20
69.6
 21
70.326
  0
LINE
  8
0
 10
5.669
 11
6.561
 20
70.326
 21
70.724
  0
LINE
  8
0
 10
6.561
 11
7.539
 20
70.724
 21
70.724
  0
LINE
  8
0
 10
7.539
 11
8.431
 20
70.724
 21
70.326
  0
LINE
  8
0
 10
8.431
 11
9.085
 20
70.326
 21
69.6
  0
LINE
  8
0
 10
9.085
 11
9.387
 20
69.6
 21
68.671
  0
LINE
  8
0
 10
9.387
 11
9.285
 20
68.671
 21
67.699
  0
LINE
  8
0
 10
9.285
 11
8.796
 20
67.699
 21
66.853
  0
LINE
  8
0
 10
8.796
 11
8.006
 20
66.853
 21
66.278
  0
LINE
  8
0
 10
8.006
 11
7.05
 20
66.278
 21
66.075
  0
LINE
  8
0
 10
7.05
 11
6.094
 20
66.075
 21
66.278
  0
LINE
  8
0
 10
6.094
 11
5.304
 20
66.278
 21
66.853
  0
LINE
  8
0
 10
5.304
 11
4.815
 20
66.853
 21
67.699
  0
LINE
  8
0
 10
4.815
 11
4.713
 20
67.699
 21
68.671
  0
LINE
  8
0
 10
11.35
 11
11.411
 20
53.075
 21
54.23
  0
LINE
  8
0
 10
11.411
 11
11.591
 20
54.23
 21
55.372
  0
LINE
  8
0
 10
11.591
 11
11.891
 20
55.372
 21
56.49
  0
LINE
  8
0
 10
11.891
 11
12.305
 20
56.49
 21
57.569
  0
LINE
  8
0
 10
12.305
 11
12.83
 20
57.569
 21
58.6
  0
LINE
  8
0
 10
12.83
 11
13.46
 20
58.6
 21
59.57
  0
LINE
  8
0
 10
13.46
 11
14.188
 20
59.57
 21
60.469
  0
LINE
  8
0
 10
14.188
 11
15.006
 20
60.469
 21
61.287
  0
LINE
  8
0
 10
15.006
 11
15.905
 20
61.287
 21
62.015
  0
LINE
  8
0
 10
15.905
 11
16.875
 20
62.015
 21
62.645
  0
LINE
  8
0
 10
16.875
 11
17.906
 20
62.645
 21
63.17
  0
LINE
  8
0
 10
17.906
 11
18.985
 20
63.17
 21
63.584
  0
LINE
  8
0
 10
18.985
 11
20.103
 20
63.584
 21
63.884
  0
LINE
  8
0
 10
20.103
 11
21.245
 20
63.884
 21
64.064
  0
LINE
  8
0
 10
21.245
 11
22.4
 20
64.064
 21
64.125
  0
LINE
  8
0
 10
22.4
 11
23.555
 20
64.125
 21
64.064
  0
LINE
  8
0
 10
23.555
 11
24.697
 20
64.064
 21
63.884
  0
LINE
  8
0
 10
24.697
 11
25.815
 20
63.884
 21
63.584
  0
LINE
  8
0
 10
25.815
 11
26.894
 20
63.584
 21
63.17
  0
LINE
  8
0
 10
26.894
 11
27.925
 20
63.17
 21
62.645
  0
LINE
  8
0
 10
27.925
 11
28.895
 20
62.645
 21
62.015
  0
LINE
  8
0
 10
28.895
 11
29.794
 20
62.015
 21
61.287
  0
LINE
  8
0
 10
29.794
 11
30.612
 20
61.287
 21
60.469
  0
LINE
  8
0
 10
30.612
 11
31.34
 20
60.469
 21
59.57
  0
LINE
  8
0
 10
31.34
 11
31.97
 20
59.57
 21
58.6
  0
LINE
  8
0
 10
31.97
 11
32.495
 20
58.6
 21
57.569
  0
LINE
  8
0
 10
32.495
 11
32.909
 20
57.569
 21
56.49
  0
LINE
  8
0
 10
32.909
 11
33.209
 20
56.49
 21
55.372
  0
LINE
  8
0
 10
33.209
 11
33.389
 20
55.372
 21
54.23
  0
LINE
  8
0
 10
33.389
 11
33.45
 20
54.23
 21
53.075
  0
LINE
  8
0
 10
33.45
 11
33.389
 20
53.075
 21
51.92
  0
LINE
  8
0
 10
33.389
 11
33.209
 20
51.92
 21
50.778
  0
LINE
  8
0
 10
33.209
 11
32.909
 20
50.778
 21
49.66
  0
LINE
  8
0
 10
32.909
 11
32.495
 20
49.66
 21
48.581
  0
LINE
  8
0
 10
32.495
 11
31.97
 20
48.581
 21
47.55
  0
LINE
  8
0
 10
31.97
 11
31.34
 20
47.55
 21
46.58
  0
LINE
  8
0
 10
31.34
 11
30.612
 20
46.58
 21
45.681
  0
LINE
  8
0
 10
30.612
 11
29.794
 20
45.681
 21
44.863
  0
LINE
  8
0
 10
29.794
 11
28.895
 20
44.863
 21
44.135
  0
LINE
  8
0
 10
28.895
 11
27.925
 20
44.135
 21
43.505
  0
LINE
  8
0
 10
27.925
 11
26.894
 20
43.505
 21
42.98
  0
LINE
  8
0
 10
26.894
 11
25.815
 20
42.98
 21
42.566
  0
LINE
  8
0
 10
25.815
 11
24.697
 20
42.566
 21
42.266
  0
LINE
  8
0
 10
24.697
 11
23.555
 20
42.266
 21
42.086
  0
LINE
  8
0
 10
23.555
 11
22.4
 20
42.086
 21
42.025
  0
LINE
  8
0
 10
22.4
 11
21.245
 20
42.025
 21
42.086
  0
LINE
  8
0
 10
21.245
 11
20.103
 20
42.086
 21
42.266
  0
LINE
  8
0
 10
20.103
 11
18.985
 20
42.266
 21
42.566
  0
LINE
  8
0
 10
18.985
 11
17.906
 20
42.566
 21
42.98
  0
LINE
  8
0
 10
17.906
 11
16.875
 20
42.98
 21
43.505
  0
LINE
  8
0
 10
16.875
 11
15.905
 20
43.505
 21
44.135
  0
LINE
  8
0
 10
15.905
 11
15.006
 20
44.135
 21
44.863
  0
LINE
  8
0
 10
15.006
 11
14.188
 20
44.863
 21
45.681
  0
LINE
  8
0
 10
14.188
 11
13.46
 20
45.681
 21
46.58
  0
LINE
  8
0
 10
13.46
 11
12.83
 20
46.58
 21
47.55
  0
LINE
  8
0
 10
12.83
 11
12.305
 20
47.55
 21
48.581
  0
LINE
  8
0
 10
12.305
 11
11.891
 20
48.581
 21
49.66
  0
LINE
  8
0
 10
11.891
 11
11.591
 20
49.66
 21
50.778
  0
LINE
  8
0
 10
11.591
 11
11.411
 20
50.778
 21
51.92
  0
LINE
  8
0
 10
11.411
 11
11.35
 20
51.92
 21
53.075
  0
LINE
  8
0
 10
35.413
 11
35.715
 20
37.971
 21
38.9
  0
LINE
  8
0
 10
35.715
 11
36.369
 20
38.9
 21
39.626
  0
LINE
  8
0
 10
36.369
 11
37.261
 20
39.626
 21
40.024
  0
LINE
  8
0
 10
37.261
 11
38.239
 20
40.024
 21
40.024
  0
LINE
  8
0
 10
38.239
 11
39.131
 20
40.024
 21
39.626
  0
LINE
  8
0
 10
39.131
 11
39.785
 20
39.626
 21
38.9
  0
LINE
  8
0
 10
39.785
 11
40.087
 20
38.9
 21
37.971
  0
LINE
  8
0
 10
40.087
 11
39.985
 20
37.971
 21
36.999
  0
LINE
  8
0
 10
39.985
 11
39.496
 20
36.999
 21
36.153
  0
LINE
  8
0
 10
39.496
 11
38.706
 20
36.153
 21
35.578
  0
LINE
  8
0
 10
38.706
 11
37.75
 20
35.578
 21
35.375
  0
LINE
  8
0
 10
37.75
 11
36.794
 20
35.375
 21
35.578
  0
LINE
  8
0
 10
36.794
 11
36.004
 20
35.578
 21
36.153
  0
LINE
  8
0
 10
36.004
 11
35.515
 20
36.153
 21
36.999
  0
LINE
  8
0
 10
35.515
 11
35.413
 20
36.999
 21
37.971
  0
LINE
  8
0
 10
35.413
 11
35.715
 20
68.671
 21
69.6
  0
LINE
  8
0
 10
35.715
 11
36.369
 20
69.6
 21
70.326
  0
LINE
  8
0
 10
36.369
 11
37.261
 20
70.326
 21
70.724
  0
LINE
  8
0
 10
37.261
 11
38.239
 20
70.724
 21
70.724
  0
LINE
  8
0
 10
38.239
 11
39.131
 20
70.724
 21
70.326
  0
LINE
  8
0
 10
39.131
 11
39.785
 20
70.326
 21
69.6
  0
LINE
  8
0
 10
39.785
 11
40.087
 20
69.6
 21
68.671
  0
LINE
  8
0
 10
40.087
 11
39.985
 20
68.671
 21
67.699
  0
LINE
  8
0
 10
39.985
 11
39.496
 20
67.699
 21
66.853
  0
LINE
  8
0
 10
39.496
 11
38.706
 20
66.853
 21
66.278
  0
LINE
  8
0
 10
38.706
 11
37.75
 20
66.278
 21
66.075
  0
LINE
  8
0
 10
37.75
 11
36.794
 20
66.075
 21
66.278
  0
LINE
  8
0
 10
36.794
 11
36.004
 20
66.278
 21
66.853
  0
LINE
  8
0
 10
36.004
 11
35.515
 20
66.853
 21
67.699
  0
LINE
  8
0
 10
35.515
 11
35.413
 20
67.699
 21
68.671
  0
ENDSEC
  0
SECTION
  2
OBJECTS
  0
DICTIONARY
  0
ENDSEC
  0
EOF
