  0
SECTION
  2
BLOCKS
  0
ENDSEC
  0
SECTION
  2
ENTITIES
  0
LINE
  8
0
 10
55
 11
55
 20
-30.05
 21
30.05
  0
LINE
  8
0
 10
55
 11
95
 20
30.05
 21
30.05
  0
LINE
  8
0
 10
95
 11
95
 20
30.05
 21
-30.05
  0
LINE
  8
0
 10
95
 11
55
 20
-30.05
 21
-30.05
  0
LINE
  8
0
 10
58.495
 11
58.495
 20
-25.371
 21
-24.629
  0
LINE
  8
0
 10
58.495
 11
58.84
 20
-24.629
 21
-23.972
  0
LINE
  8
0
 10
58.84
 11
59.45
 20
-23.972
 21
-23.551
  0
LINE
  8
0
 10
59.45
 11
60.187
 20
-23.551
 21
-23.461
  0
LINE
  8
0
 10
60.187
 11
60.881
 20
-23.461
 21
-23.724
  0
LINE
  8
0
 10
60.881
 11
61.372
 20
-23.724
 21
-24.28
  0
LINE
  8
0
 10
61.372
 11
61.55
 20
-24.28
 21
-25
  0
LINE
  8
0
 10
61.55
 11
61.372
 20
-25
 21
-25.72
  0
LINE
  8
0
 10
61.372
 11
60.881
 20
-25.72
 21
-26.276
  0
LINE
  8
0
 10
60.881
 11
60.187
 20
-26.276
 21
-26.539
  0
LINE
  8
0
 10
60.187
 11
59.45
 20
-26.539
 21
-26.449
  0
LINE
  8
0
 10
59.45
 11
58.84
 20
-26.449
 21
-26.028
  0
LINE
  8
0
 10
58.84
 11
58.495
 20
-26.028
 21
-25.371
  0
LINE
  8
0
 10
58.495
 11
58.495
 20
24.629
 21
25.371
  0
LINE
  8
0
 10
58.495
 11
58.84
 20
25.371
 21
26.028
  0
LINE
  8
0
 10
58.84
 11
59.45
 20
26.028
 21
26.449
  0
LINE
  8
0
 10
59.45
 11
60.187
 20
26.449
 21
26.539
  0
LINE
  8
0
 10
60.187
 11
60.881
 20
26.539
 21
26.276
  0
LINE
  8
0
 10
60.881
 11
61.372
 20
26.276
 21
25.72
  0
LINE
  8
0
 10
61.372
 11
61.55
 20
25.72
 21
25
  0
LINE
  8
0
 10
61.55
 11
61.372
 20
25
 21
24.28
  0
LINE
  8
0
 10
61.372
 11
60.881
 20
24.28
 21
23.724
  0
LINE
  8
0
 10
60.881
 11
60.187
 20
23.724
 21
23.461
  0
LINE
  8
0
 10
60.187
 11
59.45
 20
23.461
 21
23.551
  0
LINE
  8
0
 10
59.45
 11
58.84
 20
23.551
 21
23.972
  0
LINE
  8
0
 10
58.84
 11
58.495
 20
23.972
 21
24.629
  0
LINE
  8
0
 10
64
 11
64.167
 20
0
 21
1.91
  0
LINE
  8
0
 10
64.167
 11
64.663
 20
1.91
 21
3.762
  0
LINE
  8
0
 10
64.663
 11
65.474
 20
3.762
 21
5.5
  0
LINE
  8
0
 10
65.474
 11
66.574
 20
5.5
 21
7.071
  0
LINE
  8
0
 10
66.574
 11
67.929
 20
7.071
 21
8.426
  0
LINE
  8
0
 10
67.929
 11
69.5
 20
8.426
 21
9.526
  0
LINE
  8
0
 10
69.5
 11
71.238
 20
9.526
 21
10.337
  0
LINE
  8
0
 10
71.238
 11
73.09
 20
10.337
 21
10.833
  0
LINE
  8
0
 10
73.09
 11
75
 20
10.833
 21
11
  0
LINE
  8
0
 10
75
 11
76.91
 20
11
 21
10.833
  0
LINE
  8
0
 10
76.91
 11
78.762
 20
10.833
 21
10.337
  0
LINE
  8
0
 10
78.762
 11
80.5
 20
10.337
 21
9.526
  0
LINE
  8
0
 10
80.5
 11
82.071
 20
9.526
 21
8.426
  0
LINE
  8
0
 10
82.071
 11
83.426
 20
8.426
 21
7.071
  0
LINE
  8
0
 10
83.426
 11
84.526
 20
7.071
 21
5.5
  0
LINE
  8
0
 10
84.526
 11
85.337
 20
5.5
 21
3.762
  0
LINE
  8
0
 10
85.337
 11
85.833
 20
3.762
 21
1.91
  0
LINE
  8
0
 10
85.833
 11
86
 20
1.91
 21
0
  0
LINE
  8
0
 10
86
 11
85.833
 20
0
 21
-1.91
  0
LINE
  8
0
 10
85.833
 11
85.337
 20
-1.91
 21
-3.762
  0
LINE
  8
0
 10
85.337
 11
84.526
 20
-3.762
 21
-5.5
  0
LINE
  8
0
 10
84.526
 11
83.426
 20
-5.5
 21
-7.071
  0
LINE
  8
0
 10
83.426
 11
82.071
 20
-7.071
 21
-8.426
  0
LINE
  8
0
 10
82.071
 11
80.5
 20
-8.426
 21
-9.526
  0
LINE
  8
0
 10
80.5
 11
78.762
 20
-9.526
 21
-10.337
  0
LINE
  8
0
 10
78.762
 11
76.91
 20
-10.337
 21
-10.833
  0
LINE
  8
0
 10
76.91
 11
75
 20
-10.833
 21
-11
  0
LINE
  8
0
 10
75
 11
73.09
 20
-11
 21
-10.833
  0
LINE
  8
0
 10
73.09
 11
71.238
 20
-10.833
 21
-10.337
  0
LINE
  8
0
 10
71.238
 11
69.5
 20
-10.337
 21
-9.526
  0
LINE
  8
0
 10
69.5
 11
67.929
 20
-9.526
 21
-8.426
  0
LINE
  8
0
 10
67.929
 11
66.574
 20
-8.426
 21
-7.071
  0
LINE
  8
0
 10
66.574
 11
65.474
 20
-7.071
 21
-5.5
  0
LINE
  8
0
 10
65.474
 11
64.663
 20
-5.5
 21
-3.762
  0
LINE
  8
0
 10
64.663
 11
64.167
 20
-3.762
 21
-1.91
  0
LINE
  8
0
 10
64.167
 11
64
 20
-1.91
 21
0
  0
LINE
  8
0
 10
85.5
 11
85.701
 20
-12.5
 21
-11.75
  0
LINE
  8
0
 10
85.701
 11
86.25
 20
-11.75
 21
-11.201
  0
LINE
  8
0
 10
86.25
 11
87
 20
-11.201
 21
-11
  0
LINE
  8
0
 10
87
 11
87.75
 20
-11
 21
-11.201
  0
LINE
  8
0
 10
87.75
 11
88.299
 20
-11.201
 21
-11.75
  0
LINE
  8
0
 10
88.299
 11
88.5
 20
-11.75
 21
-12.5
  0
LINE
  8
0
 10
88.5
 11
88.299
 20
-12.5
 21
-13.25
  0
LINE
  8
0
 10
88.299
 11
87.75
 20
-13.25
 21
-13.799
  0
LINE
  8
0
 10
87.75
 11
87
 20
-13.799
 21
-14
  0
LINE
  8
0
 10
87
 11
86.25
 20
-14
 21
-13.799
  0
LINE
  8
0
 10
86.25
 11
85.701
 20
-13.799
 21
-13.25
  0
LINE
  8
0
 10
85.701
 11
85.5
 20
-13.25
 21
-12.5
  0
LINE
  8
0
 10
88.495
 11
88.495
 20
-25.371
 21
-24.629
  0
LINE
  8
0
 10
88.495
 11
88.84
 20
-24.629
 21
-23.972
  0
LINE
  8
0
 10
88.84
 11
89.45
 20
-23.972
 21
-23.551
  0
LINE
  8
0
 10
89.45
 11
90.187
 20
-23.551
 21
-23.461
  0
LINE
  8
0
 10
90.187
 11
90.881
 20
-23.461
 21
-23.724
  0
LINE
  8
0
 10
90.881
 11
91.372
 20
-23.724
 21
-24.28
  0
LINE
  8
0
 10
91.372
 11
91.55
 20
-24.28
 21
-25
  0
LINE
  8
0
 10
91.55
 11
91.372
 20
-25
 21
-25.72
  0
LINE
  8
0
 10
91.372
 11
90.881
 20
-25.72
 21
-26.276
  0
LINE
  8
0
 10
90.881
 11
90.187
 20
-26.276
 21
-26.539
  0
LINE
  8
0
 10
90.187
 11
89.45
 20
-26.539
 21
-26.449
  0
LINE
  8
0
 10
89.45
 11
88.84
 20
-26.449
 21
-26.028
  0
LINE
  8
0
 10
88.84
 11
88.495
 20
-26.028
 21
-25.371
  0
LINE
  8
0
 10
88.495
 11
88.495
 20
24.629
 21
25.371
  0
LINE
  8
0
 10
88.495
 11
88.84
 20
25.371
 21
26.028
  0
LINE
  8
0
 10
88.84
 11
89.45
 20
26.028
 21
26.449
  0
LINE
  8
0
 10
89.45
 11
90.187
 20
26.449
 21
26.539
  0
LINE
  8
0
 10
90.187
 11
90.881
 20
26.539
 21
26.276
  0
LINE
  8
0
 10
90.881
 11
91.372
 20
26.276
 21
25.72
  0
LINE
  8
0
 10
91.372
 11
91.55
 20
25.72
 21
25
  0
LINE
  8
0
 10
91.55
 11
91.372
 20
25
 21
24.28
  0
LINE
  8
0
 10
91.372
 11
90.881
 20
24.28
 21
23.724
  0
LINE
  8
0
 10
90.881
 11
90.187
 20
23.724
 21
23.461
  0
LINE
  8
0
 10
90.187
 11
89.45
 20
23.461
 21
23.551
  0
LINE
  8
0
 10
89.45
 11
88.84
 20
23.551
 21
23.972
  0
LINE
  8
0
 10
88.84
 11
88.495
 20
23.972
 21
24.629
  0
ENDSEC
  0
SECTION
  2
OBJECTS
  0
DICTIONARY
  0
ENDSEC
  0
EOF
