  0
SECTION
  2
BLOCKS
  0
ENDSEC
  0
SECTION
  2
ENTITIES
  0
LINE
  8
0
 10
130
 11
130
 20
-30.05
 21
30.05
  0
LINE
  8
0
 10
130
 11
170
 20
30.05
 21
30.05
  0
LINE
  8
0
 10
170
 11
170
 20
30.05
 21
-30.05
  0
LINE
  8
0
 10
170
 11
130
 20
-30.05
 21
-30.05
  0
LINE
  8
0
 10
133.495
 11
133.495
 20
-25.371
 21
-24.629
  0
LINE
  8
0
 10
133.495
 11
133.84
 20
-24.629
 21
-23.972
  0
LINE
  8
0
 10
133.84
 11
134.45
 20
-23.972
 21
-23.551
  0
LINE
  8
0
 10
134.45
 11
135.187
 20
-23.551
 21
-23.461
  0
LINE
  8
0
 10
135.187
 11
135.88
 20
-23.461
 21
-23.724
  0
LINE
  8
0
 10
135.88
 11
136.372
 20
-23.724
 21
-24.28
  0
LINE
  8
0
 10
136.372
 11
136.55
 20
-24.28
 21
-25
  0
LINE
  8
0
 10
136.55
 11
136.372
 20
-25
 21
-25.72
  0
LINE
  8
0
 10
136.372
 11
135.88
 20
-25.72
 21
-26.276
  0
LINE
  8
0
 10
135.88
 11
135.187
 20
-26.276
 21
-26.539
  0
LINE
  8
0
 10
135.187
 11
134.45
 20
-26.539
 21
-26.449
  0
LINE
  8
0
 10
134.45
 11
133.84
 20
-26.449
 21
-26.028
  0
LINE
  8
0
 10
133.84
 11
133.495
 20
-26.028
 21
-25.371
  0
LINE
  8
0
 10
133.495
 11
133.495
 20
24.629
 21
25.371
  0
LINE
  8
0
 10
133.495
 11
133.84
 20
25.371
 21
26.028
  0
LINE
  8
0
 10
133.84
 11
134.45
 20
26.028
 21
26.449
  0
LINE
  8
0
 10
134.45
 11
135.187
 20
26.449
 21
26.539
  0
LINE
  8
0
 10
135.187
 11
135.88
 20
26.539
 21
26.276
  0
LINE
  8
0
 10
135.88
 11
136.372
 20
26.276
 21
25.72
  0
LINE
  8
0
 10
136.372
 11
136.55
 20
25.72
 21
25
  0
LINE
  8
0
 10
136.55
 11
136.372
 20
25
 21
24.28
  0
LINE
  8
0
 10
136.372
 11
135.88
 20
24.28
 21
23.724
  0
LINE
  8
0
 10
135.88
 11
135.187
 20
23.724
 21
23.461
  0
LINE
  8
0
 10
135.187
 11
134.45
 20
23.461
 21
23.551
  0
LINE
  8
0
 10
134.45
 11
133.84
 20
23.551
 21
23.972
  0
LINE
  8
0
 10
133.84
 11
133.495
 20
23.972
 21
24.629
  0
LINE
  8
0
 10
139
 11
139.167
 20
0
 21
1.91
  0
LINE
  8
0
 10
139.167
 11
139.663
 20
1.91
 21
3.762
  0
LINE
  8
0
 10
139.663
 11
140.474
 20
3.762
 21
5.5
  0
LINE
  8
0
 10
140.474
 11
141.574
 20
5.5
 21
7.071
  0
LINE
  8
0
 10
141.574
 11
142.929
 20
7.071
 21
8.426
  0
LINE
  8
0
 10
142.929
 11
144.5
 20
8.426
 21
9.526
  0
LINE
  8
0
 10
144.5
 11
146.238
 20
9.526
 21
10.337
  0
LINE
  8
0
 10
146.238
 11
148.09
 20
10.337
 21
10.833
  0
LINE
  8
0
 10
148.09
 11
150
 20
10.833
 21
11
  0
LINE
  8
0
 10
150
 11
151.91
 20
11
 21
10.833
  0
LINE
  8
0
 10
151.91
 11
153.762
 20
10.833
 21
10.337
  0
LINE
  8
0
 10
153.762
 11
155.5
 20
10.337
 21
9.526
  0
LINE
  8
0
 10
155.5
 11
157.071
 20
9.526
 21
8.426
  0
LINE
  8
0
 10
157.071
 11
158.426
 20
8.426
 21
7.071
  0
LINE
  8
0
 10
158.426
 11
159.526
 20
7.071
 21
5.5
  0
LINE
  8
0
 10
159.526
 11
160.337
 20
5.5
 21
3.762
  0
LINE
  8
0
 10
160.337
 11
160.833
 20
3.762
 21
1.91
  0
LINE
  8
0
 10
160.833
 11
161
 20
1.91
 21
0
  0
LINE
  8
0
 10
161
 11
160.833
 20
0
 21
-1.91
  0
LINE
  8
0
 10
160.833
 11
160.337
 20
-1.91
 21
-3.762
  0
LINE
  8
0
 10
160.337
 11
159.526
 20
-3.762
 21
-5.5
  0
LINE
  8
0
 10
159.526
 11
158.426
 20
-5.5
 21
-7.071
  0
LINE
  8
0
 10
158.426
 11
157.071
 20
-7.071
 21
-8.426
  0
LINE
  8
0
 10
157.071
 11
155.5
 20
-8.426
 21
-9.526
  0
LINE
  8
0
 10
155.5
 11
153.762
 20
-9.526
 21
-10.337
  0
LINE
  8
0
 10
153.762
 11
151.91
 20
-10.337
 21
-10.833
  0
LINE
  8
0
 10
151.91
 11
150
 20
-10.833
 21
-11
  0
LINE
  8
0
 10
150
 11
148.09
 20
-11
 21
-10.833
  0
LINE
  8
0
 10
148.09
 11
146.238
 20
-10.833
 21
-10.337
  0
LINE
  8
0
 10
146.238
 11
144.5
 20
-10.337
 21
-9.526
  0
LINE
  8
0
 10
144.5
 11
142.929
 20
-9.526
 21
-8.426
  0
LINE
  8
0
 10
142.929
 11
141.574
 20
-8.426
 21
-7.071
  0
LINE
  8
0
 10
141.574
 11
140.474
 20
-7.071
 21
-5.5
  0
LINE
  8
0
 10
140.474
 11
139.663
 20
-5.5
 21
-3.762
  0
LINE
  8
0
 10
139.663
 11
139.167
 20
-3.762
 21
-1.91
  0
LINE
  8
0
 10
139.167
 11
139
 20
-1.91
 21
0
  0
LINE
  8
0
 10
163.495
 11
163.495
 20
-25.371
 21
-24.629
  0
LINE
  8
0
 10
163.495
 11
163.84
 20
-24.629
 21
-23.972
  0
LINE
  8
0
 10
163.84
 11
164.45
 20
-23.972
 21
-23.551
  0
LINE
  8
0
 10
164.45
 11
165.187
 20
-23.551
 21
-23.461
  0
LINE
  8
0
 10
165.187
 11
165.88
 20
-23.461
 21
-23.724
  0
LINE
  8
0
 10
165.88
 11
166.372
 20
-23.724
 21
-24.28
  0
LINE
  8
0
 10
166.372
 11
166.55
 20
-24.28
 21
-25
  0
LINE
  8
0
 10
166.55
 11
166.372
 20
-25
 21
-25.72
  0
LINE
  8
0
 10
166.372
 11
165.88
 20
-25.72
 21
-26.276
  0
LINE
  8
0
 10
165.88
 11
165.187
 20
-26.276
 21
-26.539
  0
LINE
  8
0
 10
165.187
 11
164.45
 20
-26.539
 21
-26.449
  0
LINE
  8
0
 10
164.45
 11
163.84
 20
-26.449
 21
-26.028
  0
LINE
  8
0
 10
163.84
 11
163.495
 20
-26.028
 21
-25.371
  0
LINE
  8
0
 10
163.495
 11
163.495
 20
24.629
 21
25.371
  0
LINE
  8
0
 10
163.495
 11
163.84
 20
25.371
 21
26.028
  0
LINE
  8
0
 10
163.84
 11
164.45
 20
26.028
 21
26.449
  0
LINE
  8
0
 10
164.45
 11
165.187
 20
26.449
 21
26.539
  0
LINE
  8
0
 10
165.187
 11
165.88
 20
26.539
 21
26.276
  0
LINE
  8
0
 10
165.88
 11
166.372
 20
26.276
 21
25.72
  0
LINE
  8
0
 10
166.372
 11
166.55
 20
25.72
 21
25
  0
LINE
  8
0
 10
166.55
 11
166.372
 20
25
 21
24.28
  0
LINE
  8
0
 10
166.372
 11
165.88
 20
24.28
 21
23.724
  0
LINE
  8
0
 10
165.88
 11
165.187
 20
23.724
 21
23.461
  0
LINE
  8
0
 10
165.187
 11
164.45
 20
23.461
 21
23.551
  0
LINE
  8
0
 10
164.45
 11
163.84
 20
23.551
 21
23.972
  0
LINE
  8
0
 10
163.84
 11
163.495
 20
23.972
 21
24.629
  0
ENDSEC
  0
SECTION
  2
OBJECTS
  0
DICTIONARY
  0
ENDSEC
  0
EOF
