  0
SECTION
  2
BLOCKS
  0
ENDSEC
  0
SECTION
  2
ENTITIES
  0
LINE
  8
0
 10
-37.5
 11
-37.5
 20
-20
 21
20
  0
LINE
  8
0
 10
-37.5
 11
37.5
 20
20
 21
20
  0
LINE
  8
0
 10
37.5
 11
37.5
 20
20
 21
-20
  0
LINE
  8
0
 10
37.5
 11
-37.5
 20
-20
 21
-20
  0
LINE
  8
0
 10
-31.554
 11
-31.554
 20
-0.383
 21
0.383
  0
LINE
  8
0
 10
-31.554
 11
-31.198
 20
0.383
 21
1.061
  0
LINE
  8
0
 10
-31.198
 11
-30.567
 20
1.061
 21
1.496
  0
LINE
  8
0
 10
-30.567
 11
-29.807
 20
1.496
 21
1.588
  0
LINE
  8
0
 10
-29.807
 11
-29.091
 20
1.588
 21
1.317
  0
LINE
  8
0
 10
-29.091
 11
-28.583
 20
1.317
 21
0.744
  0
LINE
  8
0
 10
-28.583
 11
-28.4
 20
0.744
 21
0
  0
LINE
  8
0
 10
-28.4
 11
-28.583
 20
0
 21
-0.744
  0
LINE
  8
0
 10
-28.583
 11
-29.091
 20
-0.744
 21
-1.317
  0
LINE
  8
0
 10
-29.091
 11
-29.807
 20
-1.317
 21
-1.588
  0
LINE
  8
0
 10
-29.807
 11
-30.567
 20
-1.588
 21
-1.496
  0
LINE
  8
0
 10
-30.567
 11
-31.198
 20
-1.496
 21
-1.061
  0
LINE
  8
0
 10
-31.198
 11
-31.554
 20
-1.061
 21
-0.383
  0
LINE
  8
0
 10
-16.554
 11
-16.554
 20
4.617
 21
5.383
  0
LINE
  8
0
 10
-16.554
 11
-16.198
 20
5.383
 21
6.061
  0
LINE
  8
0
 10
-16.198
 11
-15.567
 20
6.061
 21
6.496
  0
LINE
  8
0
 10
-15.567
 11
-14.807
 20
6.496
 21
6.588
  0
LINE
  8
0
 10
-14.807
 11
-14.091
 20
6.588
 21
6.317
  0
LINE
  8
0
 10
-14.091
 11
-13.583
 20
6.317
 21
5.744
  0
LINE
  8
0
 10
-13.583
 11
-13.4
 20
5.744
 21
5
  0
LINE
  8
0
 10
-13.4
 11
-13.583
 20
5
 21
4.256
  0
LINE
  8
0
 10
-13.583
 11
-14.091
 20
4.256
 21
3.683
  0
LINE
  8
0
 10
-14.091
 11
-14.807
 20
3.683
 21
3.412
  0
LINE
  8
0
 10
-14.807
 11
-15.567
 20
3.412
 21
3.504
  0
LINE
  8
0
 10
-15.567
 11
-16.198
 20
3.504
 21
3.939
  0
LINE
  8
0
 10
-16.198
 11
-16.554
 20
3.939
 21
4.617
  0
LINE
  8
0
 10
-1.554
 11
-1.554
 20
4.617
 21
5.383
  0
LINE
  8
0
 10
-1.554
 11
-1.198
 20
5.383
 21
6.061
  0
LINE
  8
0
 10
-1.198
 11
-0.567
 20
6.061
 21
6.496
  0
LINE
  8
0
 10
-0.567
 11
0.193
 20
6.496
 21
6.588
  0
LINE
  8
0
 10
0.193
 11
0.909
 20
6.588
 21
6.317
  0
LINE
  8
0
 10
0.909
 11
1.417
 20
6.317
 21
5.744
  0
LINE
  8
0
 10
1.417
 11
1.6
 20
5.744
 21
5
  0
LINE
  8
0
 10
1.6
 11
1.417
 20
5
 21
4.256
  0
LINE
  8
0
 10
1.417
 11
0.909
 20
4.256
 21
3.683
  0
LINE
  8
0
 10
0.909
 11
0.193
 20
3.683
 21
3.412
  0
LINE
  8
0
 10
0.193
 11
-0.567
 20
3.412
 21
3.504
  0
LINE
  8
0
 10
-0.567
 11
-1.198
 20
3.504
 21
3.939
  0
LINE
  8
0
 10
-1.198
 11
-1.554
 20
3.939
 21
4.617
  0
LINE
  8
0
 10
13.446
 11
13.446
 20
4.617
 21
5.383
  0
LINE
  8
0
 10
13.446
 11
13.802
 20
5.383
 21
6.061
  0
LINE
  8
0
 10
13.802
 11
14.433
 20
6.061
 21
6.496
  0
LINE
  8
0
 10
14.433
 11
15.193
 20
6.496
 21
6.588
  0
LINE
  8
0
 10
15.193
 11
15.909
 20
6.588
 21
6.317
  0
LINE
  8
0
 10
15.909
 11
16.417
 20
6.317
 21
5.744
  0
LINE
  8
0
 10
16.417
 11
16.6
 20
5.744
 21
5
  0
LINE
  8
0
 10
16.6
 11
16.417
 20
5
 21
4.256
  0
LINE
  8
0
 10
16.417
 11
15.909
 20
4.256
 21
3.683
  0
LINE
  8
0
 10
15.909
 11
15.193
 20
3.683
 21
3.412
  0
LINE
  8
0
 10
15.193
 11
14.433
 20
3.412
 21
3.504
  0
LINE
  8
0
 10
14.433
 11
13.802
 20
3.504
 21
3.939
  0
LINE
  8
0
 10
13.802
 11
13.446
 20
3.939
 21
4.617
  0
LINE
  8
0
 10
28.446
 11
28.446
 20
-0.383
 21
0.383
  0
LINE
  8
0
 10
28.446
 11
28.802
 20
0.383
 21
1.061
  0
LINE
  8
0
 10
28.802
 11
29.433
 20
1.061
 21
1.496
  0
LINE
  8
0
 10
29.433
 11
30.193
 20
1.496
 21
1.588
  0
LINE
  8
0
 10
30.193
 11
30.909
 20
1.588
 21
1.317
  0
LINE
  8
0
 10
30.909
 11
31.417
 20
1.317
 21
0.744
  0
LINE
  8
0
 10
31.417
 11
31.6
 20
0.744
 21
0
  0
LINE
  8
0
 10
31.6
 11
31.417
 20
0
 21
-0.744
  0
LINE
  8
0
 10
31.417
 11
30.909
 20
-0.744
 21
-1.317
  0
LINE
  8
0
 10
30.909
 11
30.193
 20
-1.317
 21
-1.588
  0
LINE
  8
0
 10
30.193
 11
29.433
 20
-1.588
 21
-1.496
  0
LINE
  8
0
 10
29.433
 11
28.802
 20
-1.496
 21
-1.061
  0
LINE
  8
0
 10
28.802
 11
28.446
 20
-1.061
 21
-0.383
  0
ENDSEC
  0
SECTION
  2
OBJECTS
  0
DICTIONARY
  0
ENDSEC
  0
EOF
