  0
SECTION
  2
BLOCKS
  0
ENDSEC
  0
SECTION
  2
ENTITIES
  0
LINE
  8
0
 10
-10
 11
-10
 20
-0.17
 21
0.17
  0
LINE
  8
0
 10
-10
 11
-9.99
 20
0.17
 21
0.35
  0
LINE
  8
0
 10
-9.99
 11
-9.99
 20
0.35
 21
0.52
  0
LINE
  8
0
 10
-9.99
 11
-9.98
 20
0.52
 21
0.7
  0
LINE
  8
0
 10
-9.98
 11
-9.96
 20
0.7
 21
0.87
  0
LINE
  8
0
 10
-9.96
 11
-9.95
 20
0.87
 21
1.05
  0
LINE
  8
0
 10
-9.95
 11
-9.93
 20
1.05
 21
1.22
  0
LINE
  8
0
 10
-9.93
 11
-9.9
 20
1.22
 21
1.39
  0
LINE
  8
0
 10
-9.9
 11
-9.88
 20
1.39
 21
1.56
  0
LINE
  8
0
 10
-9.88
 11
-9.85
 20
1.56
 21
1.74
  0
LINE
  8
0
 10
-9.85
 11
-9.82
 20
1.74
 21
1.91
  0
LINE
  8
0
 10
-9.82
 11
-9.78
 20
1.91
 21
2.08
  0
LINE
  8
0
 10
-9.78
 11
-9.7
 20
2.08
 21
2.42
  0
LINE
  8
0
 10
-9.7
 11
-9.66
 20
2.42
 21
2.59
  0
LINE
  8
0
 10
-9.66
 11
-9.61
 20
2.59
 21
2.76
  0
LINE
  8
0
 10
-9.61
 11
-9.56
 20
2.76
 21
2.92
  0
LINE
  8
0
 10
-9.56
 11
-9.51
 20
2.92
 21
3.09
  0
LINE
  8
0
 10
-9.51
 11
-9.46
 20
3.09
 21
3.26
  0
LINE
  8
0
 10
-9.46
 11
-9.4
 20
3.26
 21
3.42
  0
LINE
  8
0
 10
-9.4
 11
-9.34
 20
3.42
 21
3.58
  0
LINE
  8
0
 10
-9.34
 11
-9.27
 20
3.58
 21
3.75
  0
LINE
  8
0
 10
-9.27
 11
-9.21
 20
3.75
 21
3.91
  0
LINE
  8
0
 10
-9.21
 11
-9.14
 20
3.91
 21
4.07
  0
LINE
  8
0
 10
-9.14
 11
-9.06
 20
4.07
 21
4.23
  0
LINE
  8
0
 10
-9.06
 11
-8.99
 20
4.23
 21
4.38
  0
LINE
  8
0
 10
-8.99
 11
-8.91
 20
4.38
 21
4.54
  0
LINE
  8
0
 10
-8.91
 11
-8.83
 20
4.54
 21
4.69
  0
LINE
  8
0
 10
-8.83
 11
-8.75
 20
4.69
 21
4.85
  0
LINE
  8
0
 10
-8.75
 11
-8.66
 20
4.85
 21
5
  0
LINE
  8
0
 10
-8.66
 11
-8.57
 20
5
 21
5.15
  0
LINE
  8
0
 10
-8.57
 11
-8.48
 20
5.15
 21
5.3
  0
LINE
  8
0
 10
-8.48
 11
-8.39
 20
5.3
 21
5.45
  0
LINE
  8
0
 10
-8.39
 11
-8.29
 20
5.45
 21
5.59
  0
LINE
  8
0
 10
-8.29
 11
-8.19
 20
5.59
 21
5.74
  0
LINE
  8
0
 10
-8.19
 11
-8.09
 20
5.74
 21
5.88
  0
LINE
  8
0
 10
-8.09
 11
-7.99
 20
5.88
 21
6.02
  0
LINE
  8
0
 10
-7.99
 11
-7.88
 20
6.02
 21
6.16
  0
LINE
  8
0
 10
-7.88
 11
-7.77
 20
6.16
 21
6.29
  0
LINE
  8
0
 10
-7.77
 11
-7.66
 20
6.29
 21
6.43
  0
LINE
  8
0
 10
-7.66
 11
-7.55
 20
6.43
 21
6.56
  0
LINE
  8
0
 10
-7.55
 11
-7.19
 20
6.56
 21
6.95
  0
LINE
  8
0
 10
-7.19
 11
-6.95
 20
6.95
 21
7.19
  0
LINE
  8
0
 10
-6.95
 11
-6.56
 20
7.19
 21
7.55
  0
LINE
  8
0
 10
-6.56
 11
-6.35
 20
7.55
 21
7.56
  0
LINE
  8
0
 10
-6.35
 11
-6.13
 20
7.56
 21
7.57
  0
LINE
  8
0
 10
-6.13
 11
-5.92
 20
7.57
 21
7.58
  0
LINE
  8
0
 10
-5.92
 11
-5.71
 20
7.58
 21
7.58
  0
LINE
  8
0
 10
-5.71
 11
-5.29
 20
7.58
 21
7.56
  0
LINE
  8
0
 10
-5.29
 11
-5.09
 20
7.56
 21
7.55
  0
LINE
  8
0
 10
-5.09
 11
-4.89
 20
7.55
 21
7.53
  0
LINE
  8
0
 10
-4.89
 11
-4.69
 20
7.53
 21
7.5
  0
LINE
  8
0
 10
-4.69
 11
-4.49
 20
7.5
 21
7.47
  0
LINE
  8
0
 10
-4.49
 11
-4.29
 20
7.47
 21
7.44
  0
LINE
  8
0
 10
-4.29
 11
-4.1
 20
7.44
 21
7.4
  0
LINE
  8
0
 10
-4.1
 11
-3.91
 20
7.4
 21
7.36
  0
LINE
  8
0
 10
-3.91
 11
-3.73
 20
7.36
 21
7.31
  0
LINE
  8
0
 10
-3.73
 11
-3.54
 20
7.31
 21
7.26
  0
LINE
  8
0
 10
-3.54
 11
-3.36
 20
7.26
 21
7.2
  0
LINE
  8
0
 10
-3.36
 11
-3.18
 20
7.2
 21
7.14
  0
LINE
  8
0
 10
-3.18
 11
-3.01
 20
7.14
 21
7.08
  0
LINE
  8
0
 10
-3.01
 11
-2.83
 20
7.08
 21
7.01
  0
LINE
  8
0
 10
-2.83
 11
-2.66
 20
7.01
 21
6.94
  0
LINE
  8
0
 10
-2.66
 11
-2.5
 20
6.94
 21
6.87
  0
LINE
  8
0
 10
-2.5
 11
-2.18
 20
6.87
 21
6.71
  0
LINE
  8
0
 10
-2.18
 11
-2.02
 20
6.71
 21
6.62
  0
LINE
  8
0
 10
-2.02
 11
-1.87
 20
6.62
 21
6.53
  0
LINE
  8
0
 10
-1.87
 11
-1.73
 20
6.53
 21
6.44
  0
LINE
  8
0
 10
-1.73
 11
-1.58
 20
6.44
 21
6.34
  0
LINE
  8
0
 10
-1.58
 11
-1.44
 20
6.34
 21
6.25
  0
LINE
  8
0
 10
-1.44
 11
-1.31
 20
6.25
 21
6.14
  0
LINE
  8
0
 10
-1.31
 11
-1.17
 20
6.14
 21
6.04
  0
LINE
  8
0
 10
-1.17
 11
-1.05
 20
6.04
 21
5.93
  0
LINE
  8
0
 10
-1.05
 11
-0.92
 20
5.93
 21
5.82
  0
LINE
  8
0
 10
-0.92
 11
-0.8
 20
5.82
 21
5.71
  0
LINE
  8
0
 10
-0.8
 11
-0.69
 20
5.71
 21
5.6
  0
LINE
  8
0
 10
-0.69
 11
-0.47
 20
5.6
 21
5.36
  0
LINE
  8
0
 10
-0.47
 11
-0.37
 20
5.36
 21
5.24
  0
LINE
  8
0
 10
-0.37
 11
-0.27
 20
5.24
 21
5.12
  0
LINE
  8
0
 10
-0.27
 11
-0.17
 20
5.12
 21
5
  0
LINE
  8
0
 10
-0.17
 11
0
 20
5
 21
5
  0
LINE
  8
0
 10
0
 11
0.09
 20
5
 21
5.13
  0
LINE
  8
0
 10
0.09
 11
0.18
 20
5.13
 21
5.25
  0
LINE
  8
0
 10
0.18
 11
0.28
 20
5.25
 21
5.38
  0
LINE
  8
0
 10
0.28
 11
0.38
 20
5.38
 21
5.5
  0
LINE
  8
0
 10
0.38
 11
0.6
 20
5.5
 21
5.74
  0
LINE
  8
0
 10
0.6
 11
0.72
 20
5.74
 21
5.85
  0
LINE
  8
0
 10
0.72
 11
0.84
 20
5.85
 21
5.97
  0
LINE
  8
0
 10
0.84
 11
0.96
 20
5.97
 21
6.08
  0
LINE
  8
0
 10
0.96
 11
1.09
 20
6.08
 21
6.19
  0
LINE
  8
0
 10
1.09
 11
1.22
 20
6.19
 21
6.29
  0
LINE
  8
0
 10
1.22
 11
1.36
 20
6.29
 21
6.4
  0
LINE
  8
0
 10
1.36
 11
1.5
 20
6.4
 21
6.5
  0
LINE
  8
0
 10
1.5
 11
1.64
 20
6.5
 21
6.59
  0
LINE
  8
0
 10
1.64
 11
1.79
 20
6.59
 21
6.69
  0
LINE
  8
0
 10
1.79
 11
1.94
 20
6.69
 21
6.78
  0
LINE
  8
0
 10
1.94
 11
2.1
 20
6.78
 21
6.87
  0
LINE
  8
0
 10
2.1
 11
2.26
 20
6.87
 21
6.95
  0
LINE
  8
0
 10
2.26
 11
2.42
 20
6.95
 21
7.03
  0
LINE
  8
0
 10
2.42
 11
2.59
 20
7.03
 21
7.11
  0
LINE
  8
0
 10
2.59
 11
2.93
 20
7.11
 21
7.25
  0
LINE
  8
0
 10
2.93
 11
3.11
 20
7.25
 21
7.32
  0
LINE
  8
0
 10
3.11
 11
3.29
 20
7.32
 21
7.38
  0
LINE
  8
0
 10
3.29
 11
3.47
 20
7.38
 21
7.44
  0
LINE
  8
0
 10
3.47
 11
3.65
 20
7.44
 21
7.49
  0
LINE
  8
0
 10
3.65
 11
3.84
 20
7.49
 21
7.54
  0
LINE
  8
0
 10
3.84
 11
4.03
 20
7.54
 21
7.58
  0
LINE
  8
0
 10
4.03
 11
4.23
 20
7.58
 21
7.62
  0
LINE
  8
0
 10
4.23
 11
4.42
 20
7.62
 21
7.66
  0
LINE
  8
0
 10
4.42
 11
4.62
 20
7.66
 21
7.69
  0
LINE
  8
0
 10
4.62
 11
4.82
 20
7.69
 21
7.72
  0
LINE
  8
0
 10
4.82
 11
5.03
 20
7.72
 21
7.74
  0
LINE
  8
0
 10
5.03
 11
5.23
 20
7.74
 21
7.76
  0
LINE
  8
0
 10
5.23
 11
5.65
 20
7.76
 21
7.78
  0
LINE
  8
0
 10
5.65
 11
6.08
 20
7.78
 21
7.78
  0
LINE
  8
0
 10
6.08
 11
6.29
 20
7.78
 21
7.77
  0
LINE
  8
0
 10
6.29
 11
6.43
 20
7.77
 21
7.66
  0
LINE
  8
0
 10
6.43
 11
6.56
 20
7.66
 21
7.55
  0
LINE
  8
0
 10
6.56
 11
6.95
 20
7.55
 21
7.19
  0
LINE
  8
0
 10
6.95
 11
7.19
 20
7.19
 21
6.95
  0
LINE
  8
0
 10
7.19
 11
7.55
 20
6.95
 21
6.56
  0
LINE
  8
0
 10
7.55
 11
7.66
 20
6.56
 21
6.43
  0
LINE
  8
0
 10
7.66
 11
7.77
 20
6.43
 21
6.29
  0
LINE
  8
0
 10
7.77
 11
7.88
 20
6.29
 21
6.16
  0
LINE
  8
0
 10
7.88
 11
7.99
 20
6.16
 21
6.02
  0
LINE
  8
0
 10
7.99
 11
8.09
 20
6.02
 21
5.88
  0
LINE
  8
0
 10
8.09
 11
8.19
 20
5.88
 21
5.74
  0
LINE
  8
0
 10
8.19
 11
8.29
 20
5.74
 21
5.59
  0
LINE
  8
0
 10
8.29
 11
8.39
 20
5.59
 21
5.45
  0
LINE
  8
0
 10
8.39
 11
8.48
 20
5.45
 21
5.3
  0
LINE
  8
0
 10
8.48
 11
8.57
 20
5.3
 21
5.15
  0
LINE
  8
0
 10
8.57
 11
8.66
 20
5.15
 21
5
  0
LINE
  8
0
 10
8.66
 11
8.75
 20
5
 21
4.85
  0
LINE
  8
0
 10
8.75
 11
8.83
 20
4.85
 21
4.69
  0
LINE
  8
0
 10
8.83
 11
8.91
 20
4.69
 21
4.54
  0
LINE
  8
0
 10
8.91
 11
8.99
 20
4.54
 21
4.38
  0
LINE
  8
0
 10
8.99
 11
9.06
 20
4.38
 21
4.23
  0
LINE
  8
0
 10
9.06
 11
9.14
 20
4.23
 21
4.07
  0
LINE
  8
0
 10
9.14
 11
9.21
 20
4.07
 21
3.91
  0
LINE
  8
0
 10
9.21
 11
9.27
 20
3.91
 21
3.75
  0
LINE
  8
0
 10
9.27
 11
9.34
 20
3.75
 21
3.58
  0
LINE
  8
0
 10
9.34
 11
9.4
 20
3.58
 21
3.42
  0
LINE
  8
0
 10
9.4
 11
9.46
 20
3.42
 21
3.26
  0
LINE
  8
0
 10
9.46
 11
9.51
 20
3.26
 21
3.09
  0
LINE
  8
0
 10
9.51
 11
9.56
 20
3.09
 21
2.92
  0
LINE
  8
0
 10
9.56
 11
9.61
 20
2.92
 21
2.76
  0
LINE
  8
0
 10
9.61
 11
9.66
 20
2.76
 21
2.59
  0
LINE
  8
0
 10
9.66
 11
9.7
 20
2.59
 21
2.42
  0
LINE
  8
0
 10
9.7
 11
9.78
 20
2.42
 21
2.08
  0
LINE
  8
0
 10
9.78
 11
9.82
 20
2.08
 21
1.91
  0
LINE
  8
0
 10
9.82
 11
9.85
 20
1.91
 21
1.74
  0
LINE
  8
0
 10
9.85
 11
9.88
 20
1.74
 21
1.56
  0
LINE
  8
0
 10
9.88
 11
9.9
 20
1.56
 21
1.39
  0
LINE
  8
0
 10
9.9
 11
9.93
 20
1.39
 21
1.22
  0
LINE
  8
0
 10
9.93
 11
9.95
 20
1.22
 21
1.05
  0
LINE
  8
0
 10
9.95
 11
9.96
 20
1.05
 21
0.87
  0
LINE
  8
0
 10
9.96
 11
9.98
 20
0.87
 21
0.7
  0
LINE
  8
0
 10
9.98
 11
9.99
 20
0.7
 21
0.52
  0
LINE
  8
0
 10
9.99
 11
9.99
 20
0.52
 21
0.35
  0
LINE
  8
0
 10
9.99
 11
10
 20
0.35
 21
0.17
  0
LINE
  8
0
 10
10
 11
10
 20
0.17
 21
-0.17
  0
LINE
  8
0
 10
10
 11
9.99
 20
-0.17
 21
-0.35
  0
LINE
  8
0
 10
9.99
 11
9.99
 20
-0.35
 21
-0.52
  0
LINE
  8
0
 10
9.99
 11
9.98
 20
-0.52
 21
-0.7
  0
LINE
  8
0
 10
9.98
 11
9.96
 20
-0.7
 21
-0.87
  0
LINE
  8
0
 10
9.96
 11
9.95
 20
-0.87
 21
-1.05
  0
LINE
  8
0
 10
9.95
 11
9.93
 20
-1.05
 21
-1.22
  0
LINE
  8
0
 10
9.93
 11
9.9
 20
-1.22
 21
-1.39
  0
LINE
  8
0
 10
9.9
 11
9.88
 20
-1.39
 21
-1.56
  0
LINE
  8
0
 10
9.88
 11
9.85
 20
-1.56
 21
-1.74
  0
LINE
  8
0
 10
9.85
 11
9.82
 20
-1.74
 21
-1.91
  0
LINE
  8
0
 10
9.82
 11
9.78
 20
-1.91
 21
-2.08
  0
LINE
  8
0
 10
9.78
 11
9.7
 20
-2.08
 21
-2.42
  0
LINE
  8
0
 10
9.7
 11
9.66
 20
-2.42
 21
-2.59
  0
LINE
  8
0
 10
9.66
 11
9.61
 20
-2.59
 21
-2.76
  0
LINE
  8
0
 10
9.61
 11
9.56
 20
-2.76
 21
-2.92
  0
LINE
  8
0
 10
9.56
 11
9.51
 20
-2.92
 21
-3.09
  0
LINE
  8
0
 10
9.51
 11
9.46
 20
-3.09
 21
-3.26
  0
LINE
  8
0
 10
9.46
 11
9.4
 20
-3.26
 21
-3.42
  0
LINE
  8
0
 10
9.4
 11
9.34
 20
-3.42
 21
-3.58
  0
LINE
  8
0
 10
9.34
 11
9.27
 20
-3.58
 21
-3.75
  0
LINE
  8
0
 10
9.27
 11
9.21
 20
-3.75
 21
-3.91
  0
LINE
  8
0
 10
9.21
 11
9.14
 20
-3.91
 21
-4.07
  0
LINE
  8
0
 10
9.14
 11
9.06
 20
-4.07
 21
-4.23
  0
LINE
  8
0
 10
9.06
 11
8.99
 20
-4.23
 21
-4.38
  0
LINE
  8
0
 10
8.99
 11
8.91
 20
-4.38
 21
-4.54
  0
LINE
  8
0
 10
8.91
 11
8.83
 20
-4.54
 21
-4.69
  0
LINE
  8
0
 10
8.83
 11
8.75
 20
-4.69
 21
-4.85
  0
LINE
  8
0
 10
8.75
 11
8.66
 20
-4.85
 21
-5
  0
LINE
  8
0
 10
8.66
 11
8.57
 20
-5
 21
-5.15
  0
LINE
  8
0
 10
8.57
 11
8.48
 20
-5.15
 21
-5.3
  0
LINE
  8
0
 10
8.48
 11
8.39
 20
-5.3
 21
-5.45
  0
LINE
  8
0
 10
8.39
 11
8.29
 20
-5.45
 21
-5.59
  0
LINE
  8
0
 10
8.29
 11
8.19
 20
-5.59
 21
-5.74
  0
LINE
  8
0
 10
8.19
 11
8.09
 20
-5.74
 21
-5.88
  0
LINE
  8
0
 10
8.09
 11
7.99
 20
-5.88
 21
-6.02
  0
LINE
  8
0
 10
7.99
 11
7.88
 20
-6.02
 21
-6.16
  0
LINE
  8
0
 10
7.88
 11
7.77
 20
-6.16
 21
-6.29
  0
LINE
  8
0
 10
7.77
 11
7.66
 20
-6.29
 21
-6.43
  0
LINE
  8
0
 10
7.66
 11
7.55
 20
-6.43
 21
-6.56
  0
LINE
  8
0
 10
7.55
 11
7.19
 20
-6.56
 21
-6.95
  0
LINE
  8
0
 10
7.19
 11
6.95
 20
-6.95
 21
-7.19
  0
LINE
  8
0
 10
6.95
 11
6.56
 20
-7.19
 21
-7.55
  0
LINE
  8
0
 10
6.56
 11
6.43
 20
-7.55
 21
-7.66
  0
LINE
  8
0
 10
6.43
 11
6.29
 20
-7.66
 21
-7.77
  0
LINE
  8
0
 10
6.29
 11
6.16
 20
-7.77
 21
-7.88
  0
LINE
  8
0
 10
6.16
 11
6.02
 20
-7.88
 21
-7.99
  0
LINE
  8
0
 10
6.02
 11
5.88
 20
-7.99
 21
-8.09
  0
LINE
  8
0
 10
5.88
 11
5.74
 20
-8.09
 21
-8.19
  0
LINE
  8
0
 10
5.74
 11
5.59
 20
-8.19
 21
-8.29
  0
LINE
  8
0
 10
5.59
 11
5.45
 20
-8.29
 21
-8.39
  0
LINE
  8
0
 10
5.45
 11
5.3
 20
-8.39
 21
-8.48
  0
LINE
  8
0
 10
5.3
 11
5.15
 20
-8.48
 21
-8.57
  0
LINE
  8
0
 10
5.15
 11
5
 20
-8.57
 21
-8.66
  0
LINE
  8
0
 10
5
 11
4.85
 20
-8.66
 21
-8.75
  0
LINE
  8
0
 10
4.85
 11
4.69
 20
-8.75
 21
-8.83
  0
LINE
  8
0
 10
4.69
 11
4.54
 20
-8.83
 21
-8.91
  0
LINE
  8
0
 10
4.54
 11
4.38
 20
-8.91
 21
-8.99
  0
LINE
  8
0
 10
4.38
 11
4.23
 20
-8.99
 21
-9.06
  0
LINE
  8
0
 10
4.23
 11
4.07
 20
-9.06
 21
-9.14
  0
LINE
  8
0
 10
4.07
 11
3.91
 20
-9.14
 21
-9.21
  0
LINE
  8
0
 10
3.91
 11
3.75
 20
-9.21
 21
-9.27
  0
LINE
  8
0
 10
3.75
 11
3.58
 20
-9.27
 21
-9.34
  0
LINE
  8
0
 10
3.58
 11
3.42
 20
-9.34
 21
-9.4
  0
LINE
  8
0
 10
3.42
 11
3.26
 20
-9.4
 21
-9.46
  0
LINE
  8
0
 10
3.26
 11
3.09
 20
-9.46
 21
-9.51
  0
LINE
  8
0
 10
3.09
 11
2.92
 20
-9.51
 21
-9.56
  0
LINE
  8
0
 10
2.92
 11
2.76
 20
-9.56
 21
-9.61
  0
LINE
  8
0
 10
2.76
 11
2.59
 20
-9.61
 21
-9.66
  0
LINE
  8
0
 10
2.59
 11
2.42
 20
-9.66
 21
-9.7
  0
LINE
  8
0
 10
2.42
 11
2.08
 20
-9.7
 21
-9.78
  0
LINE
  8
0
 10
2.08
 11
1.91
 20
-9.78
 21
-9.82
  0
LINE
  8
0
 10
1.91
 11
1.74
 20
-9.82
 21
-9.85
  0
LINE
  8
0
 10
1.74
 11
1.56
 20
-9.85
 21
-9.88
  0
LINE
  8
0
 10
1.56
 11
1.39
 20
-9.88
 21
-9.9
  0
LINE
  8
0
 10
1.39
 11
1.22
 20
-9.9
 21
-9.93
  0
LINE
  8
0
 10
1.22
 11
1.05
 20
-9.93
 21
-9.95
  0
LINE
  8
0
 10
1.05
 11
0.87
 20
-9.95
 21
-9.96
  0
LINE
  8
0
 10
0.87
 11
0.7
 20
-9.96
 21
-9.98
  0
LINE
  8
0
 10
0.7
 11
0.52
 20
-9.98
 21
-9.99
  0
LINE
  8
0
 10
0.52
 11
0.35
 20
-9.99
 21
-9.99
  0
LINE
  8
0
 10
0.35
 11
0.17
 20
-9.99
 21
-10
  0
LINE
  8
0
 10
0.17
 11
-0.17
 20
-10
 21
-10
  0
LINE
  8
0
 10
-0.17
 11
-0.35
 20
-10
 21
-9.99
  0
LINE
  8
0
 10
-0.35
 11
-0.52
 20
-9.99
 21
-9.99
  0
LINE
  8
0
 10
-0.52
 11
-0.7
 20
-9.99
 21
-9.98
  0
LINE
  8
0
 10
-0.7
 11
-0.87
 20
-9.98
 21
-9.96
  0
LINE
  8
0
 10
-0.87
 11
-1.05
 20
-9.96
 21
-9.95
  0
LINE
  8
0
 10
-1.05
 11
-1.22
 20
-9.95
 21
-9.93
  0
LINE
  8
0
 10
-1.22
 11
-1.39
 20
-9.93
 21
-9.9
  0
LINE
  8
0
 10
-1.39
 11
-1.56
 20
-9.9
 21
-9.88
  0
LINE
  8
0
 10
-1.56
 11
-1.74
 20
-9.88
 21
-9.85
  0
LINE
  8
0
 10
-1.74
 11
-1.91
 20
-9.85
 21
-9.82
  0
LINE
  8
0
 10
-1.91
 11
-2.08
 20
-9.82
 21
-9.78
  0
LINE
  8
0
 10
-2.08
 11
-2.42
 20
-9.78
 21
-9.7
  0
LINE
  8
0
 10
-2.42
 11
-2.59
 20
-9.7
 21
-9.66
  0
LINE
  8
0
 10
-2.59
 11
-2.76
 20
-9.66
 21
-9.61
  0
LINE
  8
0
 10
-2.76
 11
-2.92
 20
-9.61
 21
-9.56
  0
LINE
  8
0
 10
-2.92
 11
-3.09
 20
-9.56
 21
-9.51
  0
LINE
  8
0
 10
-3.09
 11
-3.26
 20
-9.51
 21
-9.46
  0
LINE
  8
0
 10
-3.26
 11
-3.42
 20
-9.46
 21
-9.4
  0
LINE
  8
0
 10
-3.42
 11
-3.58
 20
-9.4
 21
-9.34
  0
LINE
  8
0
 10
-3.58
 11
-3.75
 20
-9.34
 21
-9.27
  0
LINE
  8
0
 10
-3.75
 11
-3.91
 20
-9.27
 21
-9.21
  0
LINE
  8
0
 10
-3.91
 11
-4.07
 20
-9.21
 21
-9.14
  0
LINE
  8
0
 10
-4.07
 11
-4.23
 20
-9.14
 21
-9.06
  0
LINE
  8
0
 10
-4.23
 11
-4.38
 20
-9.06
 21
-8.99
  0
LINE
  8
0
 10
-4.38
 11
-4.54
 20
-8.99
 21
-8.91
  0
LINE
  8
0
 10
-4.54
 11
-4.69
 20
-8.91
 21
-8.83
  0
LINE
  8
0
 10
-4.69
 11
-4.85
 20
-8.83
 21
-8.75
  0
LINE
  8
0
 10
-4.85
 11
-5
 20
-8.75
 21
-8.66
  0
LINE
  8
0
 10
-5
 11
-5.15
 20
-8.66
 21
-8.57
  0
LINE
  8
0
 10
-5.15
 11
-5.3
 20
-8.57
 21
-8.48
  0
LINE
  8
0
 10
-5.3
 11
-5.45
 20
-8.48
 21
-8.39
  0
LINE
  8
0
 10
-5.45
 11
-5.59
 20
-8.39
 21
-8.29
  0
LINE
  8
0
 10
-5.59
 11
-5.74
 20
-8.29
 21
-8.19
  0
LINE
  8
0
 10
-5.74
 11
-5.88
 20
-8.19
 21
-8.09
  0
LINE
  8
0
 10
-5.88
 11
-6.02
 20
-8.09
 21
-7.99
  0
LINE
  8
0
 10
-6.02
 11
-6.16
 20
-7.99
 21
-7.88
  0
LINE
  8
0
 10
-6.16
 11
-6.29
 20
-7.88
 21
-7.77
  0
LINE
  8
0
 10
-6.29
 11
-6.43
 20
-7.77
 21
-7.66
  0
LINE
  8
0
 10
-6.43
 11
-6.56
 20
-7.66
 21
-7.55
  0
LINE
  8
0
 10
-6.56
 11
-6.95
 20
-7.55
 21
-7.19
  0
LINE
  8
0
 10
-6.95
 11
-7.19
 20
-7.19
 21
-6.95
  0
LINE
  8
0
 10
-7.19
 11
-7.55
 20
-6.95
 21
-6.56
  0
LINE
  8
0
 10
-7.55
 11
-7.66
 20
-6.56
 21
-6.43
  0
LINE
  8
0
 10
-7.66
 11
-7.77
 20
-6.43
 21
-6.29
  0
LINE
  8
0
 10
-7.77
 11
-7.88
 20
-6.29
 21
-6.16
  0
LINE
  8
0
 10
-7.88
 11
-7.99
 20
-6.16
 21
-6.02
  0
LINE
  8
0
 10
-7.99
 11
-8.09
 20
-6.02
 21
-5.88
  0
LINE
  8
0
 10
-8.09
 11
-8.19
 20
-5.88
 21
-5.74
  0
LINE
  8
0
 10
-8.19
 11
-8.29
 20
-5.74
 21
-5.59
  0
LINE
  8
0
 10
-8.29
 11
-8.39
 20
-5.59
 21
-5.45
  0
LINE
  8
0
 10
-8.39
 11
-8.48
 20
-5.45
 21
-5.3
  0
LINE
  8
0
 10
-8.48
 11
-8.57
 20
-5.3
 21
-5.15
  0
LINE
  8
0
 10
-8.57
 11
-8.66
 20
-5.15
 21
-5
  0
LINE
  8
0
 10
-8.66
 11
-8.75
 20
-5
 21
-4.85
  0
LINE
  8
0
 10
-8.75
 11
-8.83
 20
-4.85
 21
-4.69
  0
LINE
  8
0
 10
-8.83
 11
-8.91
 20
-4.69
 21
-4.54
  0
LINE
  8
0
 10
-8.91
 11
-8.99
 20
-4.54
 21
-4.38
  0
LINE
  8
0
 10
-8.99
 11
-9.06
 20
-4.38
 21
-4.23
  0
LINE
  8
0
 10
-9.06
 11
-9.14
 20
-4.23
 21
-4.07
  0
LINE
  8
0
 10
-9.14
 11
-9.21
 20
-4.07
 21
-3.91
  0
LINE
  8
0
 10
-9.21
 11
-9.27
 20
-3.91
 21
-3.75
  0
LINE
  8
0
 10
-9.27
 11
-9.34
 20
-3.75
 21
-3.58
  0
LINE
  8
0
 10
-9.34
 11
-9.4
 20
-3.58
 21
-3.42
  0
LINE
  8
0
 10
-9.4
 11
-9.46
 20
-3.42
 21
-3.26
  0
LINE
  8
0
 10
-9.46
 11
-9.51
 20
-3.26
 21
-3.09
  0
LINE
  8
0
 10
-9.51
 11
-9.56
 20
-3.09
 21
-2.92
  0
LINE
  8
0
 10
-9.56
 11
-9.61
 20
-2.92
 21
-2.76
  0
LINE
  8
0
 10
-9.61
 11
-9.66
 20
-2.76
 21
-2.59
  0
LINE
  8
0
 10
-9.66
 11
-9.7
 20
-2.59
 21
-2.42
  0
LINE
  8
0
 10
-9.7
 11
-9.78
 20
-2.42
 21
-2.08
  0
LINE
  8
0
 10
-9.78
 11
-9.82
 20
-2.08
 21
-1.91
  0
LINE
  8
0
 10
-9.82
 11
-9.85
 20
-1.91
 21
-1.74
  0
LINE
  8
0
 10
-9.85
 11
-9.88
 20
-1.74
 21
-1.56
  0
LINE
  8
0
 10
-9.88
 11
-9.9
 20
-1.56
 21
-1.39
  0
LINE
  8
0
 10
-9.9
 11
-9.93
 20
-1.39
 21
-1.22
  0
LINE
  8
0
 10
-9.93
 11
-9.95
 20
-1.22
 21
-1.05
  0
LINE
  8
0
 10
-9.95
 11
-9.96
 20
-1.05
 21
-0.87
  0
LINE
  8
0
 10
-9.96
 11
-9.98
 20
-0.87
 21
-0.7
  0
LINE
  8
0
 10
-9.98
 11
-9.99
 20
-0.7
 21
-0.52
  0
LINE
  8
0
 10
-9.99
 11
-9.99
 20
-0.52
 21
-0.35
  0
LINE
  8
0
 10
-9.99
 11
-10
 20
-0.35
 21
-0.17
  0
LINE
  8
0
 10
-1.48
 11
-1.48
 20
-0.247
 21
0.247
  0
LINE
  8
0
 10
-1.48
 11
-1.319
 20
0.247
 21
0.714
  0
LINE
  8
0
 10
-1.319
 11
-1.016
 20
0.714
 21
1.104
  0
LINE
  8
0
 10
-1.016
 11
-0.603
 20
1.104
 21
1.374
  0
LINE
  8
0
 10
-0.603
 11
-0.124
 20
1.374
 21
1.495
  0
LINE
  8
0
 10
-0.124
 11
0.368
 20
1.495
 21
1.454
  0
LINE
  8
0
 10
0.368
 11
0.82
 20
1.454
 21
1.256
  0
LINE
  8
0
 10
0.82
 11
1.184
 20
1.256
 21
0.921
  0
LINE
  8
0
 10
1.184
 11
1.419
 20
0.921
 21
0.487
  0
LINE
  8
0
 10
1.419
 11
1.5
 20
0.487
 21
0
  0
LINE
  8
0
 10
1.5
 11
1.419
 20
0
 21
-0.487
  0
LINE
  8
0
 10
1.419
 11
1.184
 20
-0.487
 21
-0.921
  0
LINE
  8
0
 10
1.184
 11
0.82
 20
-0.921
 21
-1.256
  0
LINE
  8
0
 10
0.82
 11
0.368
 20
-1.256
 21
-1.454
  0
LINE
  8
0
 10
0.368
 11
-0.124
 20
-1.454
 21
-1.495
  0
LINE
  8
0
 10
-0.124
 11
-0.603
 20
-1.495
 21
-1.374
  0
LINE
  8
0
 10
-0.603
 11
-1.016
 20
-1.374
 21
-1.104
  0
LINE
  8
0
 10
-1.016
 11
-1.319
 20
-1.104
 21
-0.714
  0
LINE
  8
0
 10
-1.319
 11
-1.48
 20
-0.714
 21
-0.247
  0
ENDSEC
  0
SECTION
  2
OBJECTS
  0
DICTIONARY
  0
ENDSEC
  0
EOF
