  0
SECTION
  2
BLOCKS
  0
ENDSEC
  0
SECTION
  2
ENTITIES
  0
LINE
  8
0
 10
-37.5
 11
-37.5
 20
-20
 21
20
  0
LINE
  8
0
 10
-37.5
 11
-25
 20
20
 21
20
  0
LINE
  8
0
 10
-25
 11
-25
 20
20
 21
-10
  0
LINE
  8
0
 10
-25
 11
25
 20
-10
 21
-10
  0
LINE
  8
0
 10
25
 11
25
 20
-10
 21
20
  0
LINE
  8
0
 10
25
 11
37.5
 20
20
 21
20
  0
LINE
  8
0
 10
37.5
 11
37.5
 20
20
 21
-20
  0
LINE
  8
0
 10
37.5
 11
-37.5
 20
-20
 21
-20
  0
LINE
  8
0
 10
-31.554
 11
-31.554
 20
-0.383
 21
0.383
  0
LINE
  8
0
 10
-31.554
 11
-31.198
 20
0.383
 21
1.061
  0
LINE
  8
0
 10
-31.198
 11
-30.567
 20
1.061
 21
1.496
  0
LINE
  8
0
 10
-30.567
 11
-29.807
 20
1.496
 21
1.588
  0
LINE
  8
0
 10
-29.807
 11
-29.091
 20
1.588
 21
1.317
  0
LINE
  8
0
 10
-29.091
 11
-28.583
 20
1.317
 21
0.744
  0
LINE
  8
0
 10
-28.583
 11
-28.4
 20
0.744
 21
0
  0
LINE
  8
0
 10
-28.4
 11
-28.583
 20
0
 21
-0.744
  0
LINE
  8
0
 10
-28.583
 11
-29.091
 20
-0.744
 21
-1.317
  0
LINE
  8
0
 10
-29.091
 11
-29.807
 20
-1.317
 21
-1.588
  0
LINE
  8
0
 10
-29.807
 11
-30.567
 20
-1.588
 21
-1.496
  0
LINE
  8
0
 10
-30.567
 11
-31.198
 20
-1.496
 21
-1.061
  0
LINE
  8
0
 10
-31.198
 11
-31.554
 20
-1.061
 21
-0.383
  0
LINE
  8
0
 10
28.446
 11
28.446
 20
-0.383
 21
0.383
  0
LINE
  8
0
 10
28.446
 11
28.802
 20
0.383
 21
1.061
  0
LINE
  8
0
 10
28.802
 11
29.433
 20
1.061
 21
1.496
  0
LINE
  8
0
 10
29.433
 11
30.193
 20
1.496
 21
1.588
  0
LINE
  8
0
 10
30.193
 11
30.909
 20
1.588
 21
1.317
  0
LINE
  8
0
 10
30.909
 11
31.417
 20
1.317
 21
0.744
  0
LINE
  8
0
 10
31.417
 11
31.6
 20
0.744
 21
0
  0
LINE
  8
0
 10
31.6
 11
31.417
 20
0
 21
-0.744
  0
LINE
  8
0
 10
31.417
 11
30.909
 20
-0.744
 21
-1.317
  0
LINE
  8
0
 10
30.909
 11
30.193
 20
-1.317
 21
-1.588
  0
LINE
  8
0
 10
30.193
 11
29.433
 20
-1.588
 21
-1.496
  0
LINE
  8
0
 10
29.433
 11
28.802
 20
-1.496
 21
-1.061
  0
LINE
  8
0
 10
28.802
 11
28.446
 20
-1.061
 21
-0.383
  0
ENDSEC
  0
SECTION
  2
OBJECTS
  0
DICTIONARY
  0
ENDSEC
  0
EOF
