  0
SECTION
  2
BLOCKS
  0
ENDSEC
  0
SECTION
  2
ENTITIES
  0
LINE
  8
0
 10
-25
 11
-25
 20
-10
 21
20
  0
LINE
  8
0
 10
-25
 11
25
 20
20
 21
20
  0
LINE
  8
0
 10
25
 11
25
 20
20
 21
-10
  0
LINE
  8
0
 10
25
 11
-25
 20
-10
 21
-10
  0
LINE
  8
0
 10
-16.5
 11
-16.5
 20
0
 21
5
  0
LINE
  8
0
 10
-16.5
 11
-16.299
 20
5
 21
5.75
  0
LINE
  8
0
 10
-16.299
 11
-15.75
 20
5.75
 21
6.299
  0
LINE
  8
0
 10
-15.75
 11
-15
 20
6.299
 21
6.5
  0
LINE
  8
0
 10
-15
 11
-14.25
 20
6.5
 21
6.299
  0
LINE
  8
0
 10
-14.25
 11
-13.701
 20
6.299
 21
5.75
  0
LINE
  8
0
 10
-13.701
 11
-13.5
 20
5.75
 21
5
  0
LINE
  8
0
 10
-13.5
 11
-13.5
 20
5
 21
0
  0
LINE
  8
0
 10
-13.5
 11
-13.701
 20
0
 21
-0.75
  0
LINE
  8
0
 10
-13.701
 11
-14.25
 20
-0.75
 21
-1.299
  0
LINE
  8
0
 10
-14.25
 11
-15
 20
-1.299
 21
-1.5
  0
LINE
  8
0
 10
-15
 11
-15.75
 20
-1.5
 21
-1.299
  0
LINE
  8
0
 10
-15.75
 11
-16.299
 20
-1.299
 21
-0.75
  0
LINE
  8
0
 10
-16.299
 11
-16.5
 20
-0.75
 21
0
  0
LINE
  8
0
 10
-16.5
 11
-16.299
 20
11.5
 21
12.25
  0
LINE
  8
0
 10
-16.299
 11
-15.75
 20
12.25
 21
12.799
  0
LINE
  8
0
 10
-15.75
 11
-15
 20
12.799
 21
13
  0
LINE
  8
0
 10
-15
 11
-14.25
 20
13
 21
12.799
  0
LINE
  8
0
 10
-14.25
 11
-13.701
 20
12.799
 21
12.25
  0
LINE
  8
0
 10
-13.701
 11
-13.5
 20
12.25
 21
11.5
  0
LINE
  8
0
 10
-13.5
 11
-13.701
 20
11.5
 21
10.75
  0
LINE
  8
0
 10
-13.701
 11
-14.25
 20
10.75
 21
10.201
  0
LINE
  8
0
 10
-14.25
 11
-15
 20
10.201
 21
10
  0
LINE
  8
0
 10
-15
 11
-15.75
 20
10
 21
10.201
  0
LINE
  8
0
 10
-15.75
 11
-16.299
 20
10.201
 21
10.75
  0
LINE
  8
0
 10
-16.299
 11
-16.5
 20
10.75
 21
11.5
  0
LINE
  8
0
 10
-1.5
 11
-1.5
 20
0
 21
5
  0
LINE
  8
0
 10
-1.5
 11
-1.299
 20
5
 21
5.75
  0
LINE
  8
0
 10
-1.299
 11
-0.75
 20
5.75
 21
6.299
  0
LINE
  8
0
 10
-0.75
 11
0
 20
6.299
 21
6.5
  0
LINE
  8
0
 10
0
 11
0.75
 20
6.5
 21
6.299
  0
LINE
  8
0
 10
0.75
 11
1.299
 20
6.299
 21
5.75
  0
LINE
  8
0
 10
1.299
 11
1.5
 20
5.75
 21
5
  0
LINE
  8
0
 10
1.5
 11
1.5
 20
5
 21
0
  0
LINE
  8
0
 10
1.5
 11
1.299
 20
0
 21
-0.75
  0
LINE
  8
0
 10
1.299
 11
0.75
 20
-0.75
 21
-1.299
  0
LINE
  8
0
 10
0.75
 11
0
 20
-1.299
 21
-1.5
  0
LINE
  8
0
 10
0
 11
-0.75
 20
-1.5
 21
-1.299
  0
LINE
  8
0
 10
-0.75
 11
-1.299
 20
-1.299
 21
-0.75
  0
LINE
  8
0
 10
-1.299
 11
-1.5
 20
-0.75
 21
0
  0
LINE
  8
0
 10
-1.5
 11
-1.299
 20
11.5
 21
12.25
  0
LINE
  8
0
 10
-1.299
 11
-0.75
 20
12.25
 21
12.799
  0
LINE
  8
0
 10
-0.75
 11
0
 20
12.799
 21
13
  0
LINE
  8
0
 10
0
 11
0.75
 20
13
 21
12.799
  0
LINE
  8
0
 10
0.75
 11
1.299
 20
12.799
 21
12.25
  0
LINE
  8
0
 10
1.299
 11
1.5
 20
12.25
 21
11.5
  0
LINE
  8
0
 10
1.5
 11
1.299
 20
11.5
 21
10.75
  0
LINE
  8
0
 10
1.299
 11
0.75
 20
10.75
 21
10.201
  0
LINE
  8
0
 10
0.75
 11
0
 20
10.201
 21
10
  0
LINE
  8
0
 10
0
 11
-0.75
 20
10
 21
10.201
  0
LINE
  8
0
 10
-0.75
 11
-1.299
 20
10.201
 21
10.75
  0
LINE
  8
0
 10
-1.299
 11
-1.5
 20
10.75
 21
11.5
  0
LINE
  8
0
 10
13.5
 11
13.5
 20
0
 21
5
  0
LINE
  8
0
 10
13.5
 11
13.701
 20
5
 21
5.75
  0
LINE
  8
0
 10
13.701
 11
14.25
 20
5.75
 21
6.299
  0
LINE
  8
0
 10
14.25
 11
15
 20
6.299
 21
6.5
  0
LINE
  8
0
 10
15
 11
15.75
 20
6.5
 21
6.299
  0
LINE
  8
0
 10
15.75
 11
16.299
 20
6.299
 21
5.75
  0
LINE
  8
0
 10
16.299
 11
16.5
 20
5.75
 21
5
  0
LINE
  8
0
 10
16.5
 11
16.5
 20
5
 21
0
  0
LINE
  8
0
 10
16.5
 11
16.299
 20
0
 21
-0.75
  0
LINE
  8
0
 10
16.299
 11
15.75
 20
-0.75
 21
-1.299
  0
LINE
  8
0
 10
15.75
 11
15
 20
-1.299
 21
-1.5
  0
LINE
  8
0
 10
15
 11
14.25
 20
-1.5
 21
-1.299
  0
LINE
  8
0
 10
14.25
 11
13.701
 20
-1.299
 21
-0.75
  0
LINE
  8
0
 10
13.701
 11
13.5
 20
-0.75
 21
0
  0
LINE
  8
0
 10
13.5
 11
13.701
 20
11.5
 21
12.25
  0
LINE
  8
0
 10
13.701
 11
14.25
 20
12.25
 21
12.799
  0
LINE
  8
0
 10
14.25
 11
15
 20
12.799
 21
13
  0
LINE
  8
0
 10
15
 11
15.75
 20
13
 21
12.799
  0
LINE
  8
0
 10
15.75
 11
16.299
 20
12.799
 21
12.25
  0
LINE
  8
0
 10
16.299
 11
16.5
 20
12.25
 21
11.5
  0
LINE
  8
0
 10
16.5
 11
16.299
 20
11.5
 21
10.75
  0
LINE
  8
0
 10
16.299
 11
15.75
 20
10.75
 21
10.201
  0
LINE
  8
0
 10
15.75
 11
15
 20
10.201
 21
10
  0
LINE
  8
0
 10
15
 11
14.25
 20
10
 21
10.201
  0
LINE
  8
0
 10
14.25
 11
13.701
 20
10.201
 21
10.75
  0
LINE
  8
0
 10
13.701
 11
13.5
 20
10.75
 21
11.5
  0
ENDSEC
  0
SECTION
  2
OBJECTS
  0
DICTIONARY
  0
ENDSEC
  0
EOF
