  0
SECTION
  2
BLOCKS
  0
ENDSEC
  0
SECTION
  2
ENTITIES
  0
LINE
  8
0
 10
-25
 11
-25
 20
-15
 21
15
  0
LINE
  8
0
 10
-25
 11
25
 20
15
 21
15
  0
LINE
  8
0
 10
25
 11
25
 20
15
 21
-15
  0
LINE
  8
0
 10
25
 11
-25
 20
-15
 21
-15
  0
LINE
  8
0
 10
-16.5
 11
-16.5
 20
-5
 21
0
  0
LINE
  8
0
 10
-16.5
 11
-16.299
 20
0
 21
0.75
  0
LINE
  8
0
 10
-16.299
 11
-15.75
 20
0.75
 21
1.299
  0
LINE
  8
0
 10
-15.75
 11
-15
 20
1.299
 21
1.5
  0
LINE
  8
0
 10
-15
 11
-14.25
 20
1.5
 21
1.299
  0
LINE
  8
0
 10
-14.25
 11
-13.701
 20
1.299
 21
0.75
  0
LINE
  8
0
 10
-13.701
 11
-13.5
 20
0.75
 21
0
  0
LINE
  8
0
 10
-13.5
 11
-13.5
 20
0
 21
-5
  0
LINE
  8
0
 10
-13.5
 11
-13.701
 20
-5
 21
-5.75
  0
LINE
  8
0
 10
-13.701
 11
-14.25
 20
-5.75
 21
-6.299
  0
LINE
  8
0
 10
-14.25
 11
-15
 20
-6.299
 21
-6.5
  0
LINE
  8
0
 10
-15
 11
-15.75
 20
-6.5
 21
-6.299
  0
LINE
  8
0
 10
-15.75
 11
-16.299
 20
-6.299
 21
-5.75
  0
LINE
  8
0
 10
-16.299
 11
-16.5
 20
-5.75
 21
-5
  0
LINE
  8
0
 10
-16.5
 11
-16.299
 20
6.5
 21
7.25
  0
LINE
  8
0
 10
-16.299
 11
-15.75
 20
7.25
 21
7.799
  0
LINE
  8
0
 10
-15.75
 11
-15
 20
7.799
 21
8
  0
LINE
  8
0
 10
-15
 11
-14.25
 20
8
 21
7.799
  0
LINE
  8
0
 10
-14.25
 11
-13.701
 20
7.799
 21
7.25
  0
LINE
  8
0
 10
-13.701
 11
-13.5
 20
7.25
 21
6.5
  0
LINE
  8
0
 10
-13.5
 11
-13.701
 20
6.5
 21
5.75
  0
LINE
  8
0
 10
-13.701
 11
-14.25
 20
5.75
 21
5.201
  0
LINE
  8
0
 10
-14.25
 11
-15
 20
5.201
 21
5
  0
LINE
  8
0
 10
-15
 11
-15.75
 20
5
 21
5.201
  0
LINE
  8
0
 10
-15.75
 11
-16.299
 20
5.201
 21
5.75
  0
LINE
  8
0
 10
-16.299
 11
-16.5
 20
5.75
 21
6.5
  0
LINE
  8
0
 10
-1.5
 11
-1.5
 20
-5
 21
0
  0
LINE
  8
0
 10
-1.5
 11
-1.299
 20
0
 21
0.75
  0
LINE
  8
0
 10
-1.299
 11
-0.75
 20
0.75
 21
1.299
  0
LINE
  8
0
 10
-0.75
 11
0
 20
1.299
 21
1.5
  0
LINE
  8
0
 10
0
 11
0.75
 20
1.5
 21
1.299
  0
LINE
  8
0
 10
0.75
 11
1.299
 20
1.299
 21
0.75
  0
LINE
  8
0
 10
1.299
 11
1.5
 20
0.75
 21
0
  0
LINE
  8
0
 10
1.5
 11
1.5
 20
0
 21
-5
  0
LINE
  8
0
 10
1.5
 11
1.299
 20
-5
 21
-5.75
  0
LINE
  8
0
 10
1.299
 11
0.75
 20
-5.75
 21
-6.299
  0
LINE
  8
0
 10
0.75
 11
0
 20
-6.299
 21
-6.5
  0
LINE
  8
0
 10
0
 11
-0.75
 20
-6.5
 21
-6.299
  0
LINE
  8
0
 10
-0.75
 11
-1.299
 20
-6.299
 21
-5.75
  0
LINE
  8
0
 10
-1.299
 11
-1.5
 20
-5.75
 21
-5
  0
LINE
  8
0
 10
-1.5
 11
-1.299
 20
6.5
 21
7.25
  0
LINE
  8
0
 10
-1.299
 11
-0.75
 20
7.25
 21
7.799
  0
LINE
  8
0
 10
-0.75
 11
0
 20
7.799
 21
8
  0
LINE
  8
0
 10
0
 11
0.75
 20
8
 21
7.799
  0
LINE
  8
0
 10
0.75
 11
1.299
 20
7.799
 21
7.25
  0
LINE
  8
0
 10
1.299
 11
1.5
 20
7.25
 21
6.5
  0
LINE
  8
0
 10
1.5
 11
1.299
 20
6.5
 21
5.75
  0
LINE
  8
0
 10
1.299
 11
0.75
 20
5.75
 21
5.201
  0
LINE
  8
0
 10
0.75
 11
0
 20
5.201
 21
5
  0
LINE
  8
0
 10
0
 11
-0.75
 20
5
 21
5.201
  0
LINE
  8
0
 10
-0.75
 11
-1.299
 20
5.201
 21
5.75
  0
LINE
  8
0
 10
-1.299
 11
-1.5
 20
5.75
 21
6.5
  0
LINE
  8
0
 10
13.5
 11
13.5
 20
-5
 21
0
  0
LINE
  8
0
 10
13.5
 11
13.701
 20
0
 21
0.75
  0
LINE
  8
0
 10
13.701
 11
14.25
 20
0.75
 21
1.299
  0
LINE
  8
0
 10
14.25
 11
15
 20
1.299
 21
1.5
  0
LINE
  8
0
 10
15
 11
15.75
 20
1.5
 21
1.299
  0
LINE
  8
0
 10
15.75
 11
16.299
 20
1.299
 21
0.75
  0
LINE
  8
0
 10
16.299
 11
16.5
 20
0.75
 21
0
  0
LINE
  8
0
 10
16.5
 11
16.5
 20
0
 21
-5
  0
LINE
  8
0
 10
16.5
 11
16.299
 20
-5
 21
-5.75
  0
LINE
  8
0
 10
16.299
 11
15.75
 20
-5.75
 21
-6.299
  0
LINE
  8
0
 10
15.75
 11
15
 20
-6.299
 21
-6.5
  0
LINE
  8
0
 10
15
 11
14.25
 20
-6.5
 21
-6.299
  0
LINE
  8
0
 10
14.25
 11
13.701
 20
-6.299
 21
-5.75
  0
LINE
  8
0
 10
13.701
 11
13.5
 20
-5.75
 21
-5
  0
LINE
  8
0
 10
13.5
 11
13.701
 20
6.5
 21
7.25
  0
LINE
  8
0
 10
13.701
 11
14.25
 20
7.25
 21
7.799
  0
LINE
  8
0
 10
14.25
 11
15
 20
7.799
 21
8
  0
LINE
  8
0
 10
15
 11
15.75
 20
8
 21
7.799
  0
LINE
  8
0
 10
15.75
 11
16.299
 20
7.799
 21
7.25
  0
LINE
  8
0
 10
16.299
 11
16.5
 20
7.25
 21
6.5
  0
LINE
  8
0
 10
16.5
 11
16.299
 20
6.5
 21
5.75
  0
LINE
  8
0
 10
16.299
 11
15.75
 20
5.75
 21
5.201
  0
LINE
  8
0
 10
15.75
 11
15
 20
5.201
 21
5
  0
LINE
  8
0
 10
15
 11
14.25
 20
5
 21
5.201
  0
LINE
  8
0
 10
14.25
 11
13.701
 20
5.201
 21
5.75
  0
LINE
  8
0
 10
13.701
 11
13.5
 20
5.75
 21
6.5
  0
ENDSEC
  0
SECTION
  2
OBJECTS
  0
DICTIONARY
  0
ENDSEC
  0
EOF
