  0
SECTION
  2
BLOCKS
  0
ENDSEC
  0
SECTION
  2
ENTITIES
  0
LINE
  8
0
 10
-18.725
 11
-18.725
 20
3.075
 21
103.075
  0
LINE
  8
0
 10
-18.725
 11
37.775
 20
103.075
 21
103.075
  0
LINE
  8
0
 10
37.775
 11
37.775
 20
103.075
 21
3.075
  0
LINE
  8
0
 10
37.775
 11
-18.725
 20
3.075
 21
3.075
  0
LINE
  8
0
 10
-14.184
 11
-14.184
 20
10.081
 21
11.069
  0
LINE
  8
0
 10
-14.184
 11
-13.863
 20
11.069
 21
12.003
  0
LINE
  8
0
 10
-13.863
 11
-13.257
 20
12.003
 21
12.782
  0
LINE
  8
0
 10
-13.257
 11
-12.43
 20
12.782
 21
13.322
  0
LINE
  8
0
 10
-12.43
 11
-11.473
 20
13.322
 21
13.565
  0
LINE
  8
0
 10
-11.473
 11
-10.489
 20
13.565
 21
13.483
  0
LINE
  8
0
 10
-10.489
 11
-9.584
 20
13.483
 21
13.086
  0
LINE
  8
0
 10
-9.584
 11
-8.858
 20
13.086
 21
12.418
  0
LINE
  8
0
 10
-8.858
 11
-8.388
 20
12.418
 21
11.549
  0
LINE
  8
0
 10
-8.388
 11
-8.225
 20
11.549
 21
10.575
  0
LINE
  8
0
 10
-8.225
 11
-8.388
 20
10.575
 21
9.601
  0
LINE
  8
0
 10
-8.388
 11
-8.858
 20
9.601
 21
8.732
  0
LINE
  8
0
 10
-8.858
 11
-9.584
 20
8.732
 21
8.064
  0
LINE
  8
0
 10
-9.584
 11
-10.489
 20
8.064
 21
7.667
  0
LINE
  8
0
 10
-10.489
 11
-11.473
 20
7.667
 21
7.585
  0
LINE
  8
0
 10
-11.473
 11
-12.43
 20
7.585
 21
7.828
  0
LINE
  8
0
 10
-12.43
 11
-13.257
 20
7.828
 21
8.368
  0
LINE
  8
0
 10
-13.257
 11
-13.863
 20
8.368
 21
9.147
  0
LINE
  8
0
 10
-13.863
 11
-14.184
 20
9.147
 21
10.081
  0
LINE
  8
0
 10
-14.184
 11
-14.184
 20
95.081
 21
96.069
  0
LINE
  8
0
 10
-14.184
 11
-13.863
 20
96.069
 21
97.003
  0
LINE
  8
0
 10
-13.863
 11
-13.257
 20
97.003
 21
97.782
  0
LINE
  8
0
 10
-13.257
 11
-12.43
 20
97.782
 21
98.322
  0
LINE
  8
0
 10
-12.43
 11
-11.473
 20
98.322
 21
98.565
  0
LINE
  8
0
 10
-11.473
 11
-10.489
 20
98.565
 21
98.483
  0
LINE
  8
0
 10
-10.489
 11
-9.584
 20
98.483
 21
98.086
  0
LINE
  8
0
 10
-9.584
 11
-8.858
 20
98.086
 21
97.418
  0
LINE
  8
0
 10
-8.858
 11
-8.388
 20
97.418
 21
96.549
  0
LINE
  8
0
 10
-8.388
 11
-8.225
 20
96.549
 21
95.575
  0
LINE
  8
0
 10
-8.225
 11
-8.388
 20
95.575
 21
94.601
  0
LINE
  8
0
 10
-8.388
 11
-8.858
 20
94.601
 21
93.732
  0
LINE
  8
0
 10
-8.858
 11
-9.584
 20
93.732
 21
93.064
  0
LINE
  8
0
 10
-9.584
 11
-10.489
 20
93.064
 21
92.667
  0
LINE
  8
0
 10
-10.489
 11
-11.473
 20
92.667
 21
92.585
  0
LINE
  8
0
 10
-11.473
 11
-12.43
 20
92.585
 21
92.828
  0
LINE
  8
0
 10
-12.43
 11
-13.257
 20
92.828
 21
93.368
  0
LINE
  8
0
 10
-13.257
 11
-13.863
 20
93.368
 21
94.147
  0
LINE
  8
0
 10
-13.863
 11
-14.184
 20
94.147
 21
95.081
  0
LINE
  8
0
 10
-13.725
 11
-13.598
 20
53.075
 21
55.505
  0
LINE
  8
0
 10
-13.598
 11
-13.217
 20
55.505
 21
57.909
  0
LINE
  8
0
 10
-13.217
 11
-12.587
 20
57.909
 21
60.26
  0
LINE
  8
0
 10
-12.587
 11
-11.715
 20
60.26
 21
62.532
  0
LINE
  8
0
 10
-11.715
 11
-10.61
 20
62.532
 21
64.7
  0
LINE
  8
0
 10
-10.61
 11
-9.285
 20
64.7
 21
66.741
  0
LINE
  8
0
 10
-9.285
 11
-7.753
 20
66.741
 21
68.632
  0
LINE
  8
0
 10
-7.753
 11
-6.032
 20
68.632
 21
70.353
  0
LINE
  8
0
 10
-6.032
 11
-4.141
 20
70.353
 21
71.885
  0
LINE
  8
0
 10
-4.141
 11
-2.1
 20
71.885
 21
73.21
  0
LINE
  8
0
 10
-2.1
 11
0.068
 20
73.21
 21
74.315
  0
LINE
  8
0
 10
0.068
 11
2.34
 20
74.315
 21
75.187
  0
LINE
  8
0
 10
2.34
 11
4.691
 20
75.187
 21
75.817
  0
LINE
  8
0
 10
4.691
 11
7.095
 20
75.817
 21
76.198
  0
LINE
  8
0
 10
7.095
 11
9.525
 20
76.198
 21
76.325
  0
LINE
  8
0
 10
9.525
 11
11.955
 20
76.325
 21
76.198
  0
LINE
  8
0
 10
11.955
 11
14.359
 20
76.198
 21
75.817
  0
LINE
  8
0
 10
14.359
 11
16.71
 20
75.817
 21
75.187
  0
LINE
  8
0
 10
16.71
 11
18.982
 20
75.187
 21
74.315
  0
LINE
  8
0
 10
18.982
 11
21.15
 20
74.315
 21
73.21
  0
LINE
  8
0
 10
21.15
 11
23.191
 20
73.21
 21
71.885
  0
LINE
  8
0
 10
23.191
 11
25.082
 20
71.885
 21
70.353
  0
LINE
  8
0
 10
25.082
 11
26.803
 20
70.353
 21
68.632
  0
LINE
  8
0
 10
26.803
 11
28.335
 20
68.632
 21
66.741
  0
LINE
  8
0
 10
28.335
 11
29.66
 20
66.741
 21
64.7
  0
LINE
  8
0
 10
29.66
 11
30.765
 20
64.7
 21
62.532
  0
LINE
  8
0
 10
30.765
 11
31.637
 20
62.532
 21
60.26
  0
LINE
  8
0
 10
31.637
 11
32.267
 20
60.26
 21
57.909
  0
LINE
  8
0
 10
32.267
 11
32.648
 20
57.909
 21
55.505
  0
LINE
  8
0
 10
32.648
 11
32.775
 20
55.505
 21
53.075
  0
LINE
  8
0
 10
32.775
 11
32.648
 20
53.075
 21
50.645
  0
LINE
  8
0
 10
32.648
 11
32.267
 20
50.645
 21
48.241
  0
LINE
  8
0
 10
32.267
 11
31.637
 20
48.241
 21
45.89
  0
LINE
  8
0
 10
31.637
 11
30.765
 20
45.89
 21
43.618
  0
LINE
  8
0
 10
30.765
 11
29.66
 20
43.618
 21
41.45
  0
LINE
  8
0
 10
29.66
 11
28.335
 20
41.45
 21
39.409
  0
LINE
  8
0
 10
28.335
 11
26.803
 20
39.409
 21
37.518
  0
LINE
  8
0
 10
26.803
 11
25.082
 20
37.518
 21
35.797
  0
LINE
  8
0
 10
25.082
 11
23.191
 20
35.797
 21
34.265
  0
LINE
  8
0
 10
23.191
 11
21.15
 20
34.265
 21
32.94
  0
LINE
  8
0
 10
21.15
 11
18.982
 20
32.94
 21
31.835
  0
LINE
  8
0
 10
18.982
 11
16.71
 20
31.835
 21
30.963
  0
LINE
  8
0
 10
16.71
 11
14.359
 20
30.963
 21
30.333
  0
LINE
  8
0
 10
14.359
 11
11.955
 20
30.333
 21
29.952
  0
LINE
  8
0
 10
11.955
 11
9.525
 20
29.952
 21
29.825
  0
LINE
  8
0
 10
9.525
 11
7.095
 20
29.825
 21
29.952
  0
LINE
  8
0
 10
7.095
 11
4.691
 20
29.952
 21
30.333
  0
LINE
  8
0
 10
4.691
 11
2.34
 20
30.333
 21
30.963
  0
LINE
  8
0
 10
2.34
 11
0.068
 20
30.963
 21
31.835
  0
LINE
  8
0
 10
0.068
 11
-2.1
 20
31.835
 21
32.94
  0
LINE
  8
0
 10
-2.1
 11
-4.141
 20
32.94
 21
34.265
  0
LINE
  8
0
 10
-4.141
 11
-6.032
 20
34.265
 21
35.797
  0
LINE
  8
0
 10
-6.032
 11
-7.753
 20
35.797
 21
37.518
  0
LINE
  8
0
 10
-7.753
 11
-9.285
 20
37.518
 21
39.409
  0
LINE
  8
0
 10
-9.285
 11
-10.61
 20
39.409
 21
41.45
  0
LINE
  8
0
 10
-10.61
 11
-11.715
 20
41.45
 21
43.618
  0
LINE
  8
0
 10
-11.715
 11
-12.587
 20
43.618
 21
45.89
  0
LINE
  8
0
 10
-12.587
 11
-13.217
 20
45.89
 21
48.241
  0
LINE
  8
0
 10
-13.217
 11
-13.598
 20
48.241
 21
50.645
  0
LINE
  8
0
 10
-13.598
 11
-13.725
 20
50.645
 21
53.075
  0
LINE
  8
0
 10
27.316
 11
27.316
 20
10.081
 21
11.069
  0
LINE
  8
0
 10
27.316
 11
27.637
 20
11.069
 21
12.003
  0
LINE
  8
0
 10
27.637
 11
28.243
 20
12.003
 21
12.782
  0
LINE
  8
0
 10
28.243
 11
29.07
 20
12.782
 21
13.322
  0
LINE
  8
0
 10
29.07
 11
30.027
 20
13.322
 21
13.565
  0
LINE
  8
0
 10
30.027
 11
31.011
 20
13.565
 21
13.483
  0
LINE
  8
0
 10
31.011
 11
31.916
 20
13.483
 21
13.086
  0
LINE
  8
0
 10
31.916
 11
32.642
 20
13.086
 21
12.418
  0
LINE
  8
0
 10
32.642
 11
33.112
 20
12.418
 21
11.549
  0
LINE
  8
0
 10
33.112
 11
33.275
 20
11.549
 21
10.575
  0
LINE
  8
0
 10
33.275
 11
33.112
 20
10.575
 21
9.601
  0
LINE
  8
0
 10
33.112
 11
32.642
 20
9.601
 21
8.732
  0
LINE
  8
0
 10
32.642
 11
31.916
 20
8.732
 21
8.064
  0
LINE
  8
0
 10
31.916
 11
31.011
 20
8.064
 21
7.667
  0
LINE
  8
0
 10
31.011
 11
30.027
 20
7.667
 21
7.585
  0
LINE
  8
0
 10
30.027
 11
29.07
 20
7.585
 21
7.828
  0
LINE
  8
0
 10
29.07
 11
28.243
 20
7.828
 21
8.368
  0
LINE
  8
0
 10
28.243
 11
27.637
 20
8.368
 21
9.147
  0
LINE
  8
0
 10
27.637
 11
27.316
 20
9.147
 21
10.081
  0
LINE
  8
0
 10
27.316
 11
27.316
 20
95.081
 21
96.069
  0
LINE
  8
0
 10
27.316
 11
27.637
 20
96.069
 21
97.003
  0
LINE
  8
0
 10
27.637
 11
28.243
 20
97.003
 21
97.782
  0
LINE
  8
0
 10
28.243
 11
29.07
 20
97.782
 21
98.322
  0
LINE
  8
0
 10
29.07
 11
30.027
 20
98.322
 21
98.565
  0
LINE
  8
0
 10
30.027
 11
31.011
 20
98.565
 21
98.483
  0
LINE
  8
0
 10
31.011
 11
31.916
 20
98.483
 21
98.086
  0
LINE
  8
0
 10
31.916
 11
32.642
 20
98.086
 21
97.418
  0
LINE
  8
0
 10
32.642
 11
33.112
 20
97.418
 21
96.549
  0
LINE
  8
0
 10
33.112
 11
33.275
 20
96.549
 21
95.575
  0
LINE
  8
0
 10
33.275
 11
33.112
 20
95.575
 21
94.601
  0
LINE
  8
0
 10
33.112
 11
32.642
 20
94.601
 21
93.732
  0
LINE
  8
0
 10
32.642
 11
31.916
 20
93.732
 21
93.064
  0
LINE
  8
0
 10
31.916
 11
31.011
 20
93.064
 21
92.667
  0
LINE
  8
0
 10
31.011
 11
30.027
 20
92.667
 21
92.585
  0
LINE
  8
0
 10
30.027
 11
29.07
 20
92.585
 21
92.828
  0
LINE
  8
0
 10
29.07
 11
28.243
 20
92.828
 21
93.368
  0
LINE
  8
0
 10
28.243
 11
27.637
 20
93.368
 21
94.147
  0
LINE
  8
0
 10
27.637
 11
27.316
 20
94.147
 21
95.081
  0
ENDSEC
  0
SECTION
  2
OBJECTS
  0
DICTIONARY
  0
ENDSEC
  0
EOF
